<svg version="1.1" xmlns="http://www.w3.org/2000/svg" xmlns:xlink="http://www.w3.org/1999/xlink" width="795" height="155"><defs/><g><g transform="translate(-30,-45) scale(1,1)"><rect fill="#C0C0C0" stroke="none" x="47" y="62" width="88" height="24" opacity="0.2"/></g><g transform="translate(-30,-45) scale(1,1)"><rect fill="#ffffff" stroke="none" x="40" y="55" width="88" height="24"/></g><g transform="translate(-30,-45) scale(1,1)"><path fill="none" stroke="#000000" d="M 40 55 L 128 55 L 128 79 L 40 79 L 40 55 Z Z" stroke-miterlimit="10"/></g><g transform="translate(-30,-45) scale(1,1)"><g><path fill="none" stroke="none"/><text fill="#000000" stroke="none" font-family="Arial" font-size="13px" font-style="normal" font-weight="bold" text-decoration="none" x="70.2763671875" y="74.5">User</text></g></g><g transform="translate(-30,-45) scale(1,1)"><rect fill="#C0C0C0" stroke="none" x="734" y="62" width="88" height="24" opacity="0.2"/></g><g transform="translate(-30,-45) scale(1,1)"><rect fill="#ffffff" stroke="none" x="727" y="55" width="88" height="24"/></g><g transform="translate(-30,-45) scale(1,1)"><path fill="none" stroke="#000000" d="M 727 55 L 815 55 L 815 79 L 727 79 L 727 55 Z Z" stroke-miterlimit="10"/></g><g transform="translate(-30,-45) scale(1,1)"><g><path fill="none" stroke="none"/><text fill="#000000" stroke="none" font-family="Arial" font-size="13px" font-style="normal" font-weight="bold" text-decoration="none" x="738.48095703125" y="74.5">Destination</text></g></g><g transform="translate(-30,-45) scale(1,1)"><rect fill="#C0C0C0" stroke="none" x="275" y="62" width="88" height="24" opacity="0.2"/></g><g transform="translate(-30,-45) scale(1,1)"><rect fill="#ffffff" stroke="none" x="268" y="55" width="88" height="24"/></g><g transform="translate(-30,-45) scale(1,1)"><path fill="none" stroke="#000000" d="M 268 55 L 356 55 L 356 79 L 268 79 L 268 55 Z Z" stroke-miterlimit="10"/></g><g transform="translate(-30,-45) scale(1,1)"><g><path fill="none" stroke="none"/><text fill="#000000" stroke="none" font-family="Arial" font-size="13px" font-style="normal" font-weight="bold" text-decoration="none" x="288.52001953125" y="74.5">Itinerary</text></g></g><g transform="translate(-30,-45) scale(1,1)"><rect fill="#C0C0C0" stroke="none" x="505" y="62" width="88" height="24" opacity="0.2"/></g><g transform="translate(-30,-45) scale(1,1)"><rect fill="#ffffff" stroke="none" x="498" y="55" width="88" height="24"/></g><g transform="translate(-30,-45) scale(1,1)"><path fill="none" stroke="#000000" d="M 498 55 L 586 55 L 586 79 L 498 79 L 498 55 Z Z" stroke-miterlimit="10"/></g><g transform="translate(-30,-45) scale(1,1)"><g><path fill="none" stroke="none"/><text fill="#000000" stroke="none" font-family="Arial" font-size="13px" font-style="normal" font-weight="bold" text-decoration="none" x="525.740478515625" y="74.5">Place</text></g></g><g transform="translate(-30,-45) scale(1,1)"><path fill="none" stroke="#000000" d="M 129 67 L 267 67" stroke-miterlimit="10"/></g><g transform="translate(-30,-45) scale(1,1)"><g><path fill="none" stroke="none"/><text fill="#000000" stroke="none" font-family="Arial" font-size="13px" font-style="normal" font-weight="normal" text-decoration="none" x="146.5" y="85.5">1</text></g></g><g transform="translate(-30,-45) scale(1,1)"><g><path fill="none" stroke="none"/><text fill="#000000" stroke="none" font-family="Arial" font-size="13px" font-style="normal" font-weight="normal" text-decoration="none" x="235.5" y="85.5">0..*</text></g></g><g transform="translate(-30,-45) scale(1,1)"><path fill="none" stroke="#000000" d="M 357 67 L 497 67" stroke-miterlimit="10"/></g><g transform="translate(-30,-45) scale(1,1)"><g><path fill="none" stroke="none"/><text fill="#000000" stroke="none" font-family="Arial" font-size="13px" font-style="normal" font-weight="normal" text-decoration="none" x="368.5" y="85.5">0..*</text></g></g><g transform="translate(-30,-45) scale(1,1)"><g><path fill="none" stroke="none"/><text fill="#000000" stroke="none" font-family="Arial" font-size="13px" font-style="normal" font-weight="normal" text-decoration="none" x="465.5" y="85.5">1..*</text></g></g><g transform="translate(-30,-45) scale(1,1)"><path fill="none" stroke="#000000" d="M 587 67 L 726 67" stroke-miterlimit="10"/></g><g transform="translate(-30,-45) scale(1,1)"><g><path fill="none" stroke="none"/><text fill="#000000" stroke="none" font-family="Arial" font-size="13px" font-style="normal" font-weight="normal" text-decoration="none" x="598.5" y="85.5">0..*</text></g></g><g transform="translate(-30,-45) scale(1,1)"><g><path fill="none" stroke="none"/><text fill="#000000" stroke="none" font-family="Arial" font-size="13px" font-style="normal" font-weight="normal" text-decoration="none" x="700.5" y="85.5">1</text></g></g><g transform="translate(-30,-45) scale(1,1)"><rect fill="#C0C0C0" stroke="none" x="277" y="167" width="85.8017578125" height="24" opacity="0.2"/></g><g transform="translate(-30,-45) scale(1,1)"><rect fill="#ffffff" stroke="none" x="270" y="160" width="85.8017578125" height="24"/></g><g transform="translate(-30,-45) scale(1,1)"><path fill="none" stroke="#000000" d="M 270 160 L 355.8017578125 160 L 355.8017578125 184 L 270 184 L 270 160 Z Z" stroke-miterlimit="10"/></g><g transform="translate(-30,-45) scale(1,1)"><g><path fill="none" stroke="none"/><text fill="#000000" stroke="none" font-family="Arial" font-size="13px" font-style="normal" font-weight="bold" text-decoration="none" x="291.588623046875" y="179.5">Review</text></g></g><g transform="translate(-30,-45) scale(1,1)"><path fill="none" stroke="#000000" d="M 312 80 L 312 159" stroke-miterlimit="10"/></g><g transform="translate(-30,-45) scale(1,1)"><g><path fill="none" stroke="none"/><text fill="#000000" stroke="none" font-family="Arial" font-size="13px" font-style="normal" font-weight="normal" text-decoration="none" x="295.5" y="107.5">1</text></g></g><g transform="translate(-30,-45) scale(1,1)"><g><path fill="none" stroke="none"/><text fill="#000000" stroke="none" font-family="Arial" font-size="13px" font-style="normal" font-weight="normal" text-decoration="none" x="289.5" y="143.5">0..*</text></g></g><g transform="translate(-30,-45) scale(1,1)"><path fill="none" stroke="#000000" d="M 88 79 L 88 172 L 270 172" stroke-miterlimit="10"/></g><g transform="translate(-30,-45) scale(1,1)"><g><path fill="none" stroke="none"/><text fill="#000000" stroke="none" font-family="Arial" font-size="13px" font-style="normal" font-weight="normal" text-decoration="none" x="71.5" y="106.5">1</text></g></g><g transform="translate(-30,-45) scale(1,1)"><g><path fill="none" stroke="none"/><text fill="#000000" stroke="none" font-family="Arial" font-size="13px" font-style="normal" font-weight="normal" text-decoration="none" x="238.5" y="190.5">0..*</text></g></g></g></svg>
