<svg version="1.1" xmlns="http://www.w3.org/2000/svg" xmlns:xlink="http://www.w3.org/1999/xlink" width="968" height="859"><defs/><g><text fill="#eeeeee" stroke="none" font-family="Arial" font-size="24px" font-style="normal" font-weight="normal" text-decoration="none" x="0" y="0"></text><g transform="translate(-149,-30) scale(1,1)"><path fill="none" stroke="#ff7f00" d="M 696 792 L 888 792 L 888 496 L 1003 496" stroke-miterlimit="10"/></g><g transform="translate(-149,-30) scale(1,1)"><path fill="none" stroke="#ff7f00" d="M 992.8373251423759 500.209517756016 L 1003 496 L 992.8373251423758 491.790482243984" stroke-miterlimit="10"/></g><g transform="translate(-149,-30) scale(1,1)"><rect fill="#d8f2ff" stroke="none" x="1004" y="40" width="103" height="52"/></g><g transform="translate(-149,-30) scale(1,1)"><path fill="none" stroke="#0073ad" d="M 1004 40 L 1107 40 L 1107 92 L 1004 92 L 1004 40 Z Z" stroke-miterlimit="10"/></g><g transform="translate(-149,-30) scale(1,1)"><g><path fill="none" stroke="none"/><text fill="#000000" stroke="none" font-family="Arial" font-size="13px" font-style="normal" font-weight="normal" text-decoration="none" x="1027.2275390625" y="62.419921875">@Service</text><text fill="#000000" stroke="none" font-family="Arial" font-size="13px" font-style="normal" font-weight="normal" text-decoration="none" x="1024.06005859375" y="75.419921875">destination</text></g></g><g transform="translate(-149,-30) scale(1,1)"><rect fill="#d8f2ff" stroke="none" x="1004" y="693" width="103" height="47"/></g><g transform="translate(-149,-30) scale(1,1)"><path fill="none" stroke="#0073ad" d="M 1004 693 L 1107 693 L 1107 740 L 1004 740 L 1004 693 Z Z" stroke-miterlimit="10"/></g><g transform="translate(-149,-30) scale(1,1)"><g><path fill="none" stroke="none"/><text fill="#000000" stroke="none" font-family="Arial" font-size="13px" font-style="normal" font-weight="normal" text-decoration="none" x="1027.2275390625" y="707.419921875">@Service</text><text fill="#000000" stroke="none" font-family="Arial" font-size="13px" font-style="normal" font-weight="normal" text-decoration="none" x="1030.2109375" y="719.94384765625">userMng</text></g></g><g transform="translate(-149,-30) scale(1,1)"><rect fill="#d8f2ff" stroke="none" x="1004" y="621" width="103" height="47"/></g><g transform="translate(-149,-30) scale(1,1)"><path fill="none" stroke="#0073ad" d="M 1004 621 L 1107 621 L 1107 668 L 1004 668 L 1004 621 Z Z" stroke-miterlimit="10"/></g><g transform="translate(-149,-30) scale(1,1)"><g><path fill="none" stroke="none"/><text fill="#000000" stroke="none" font-family="Arial" font-size="13px" font-style="normal" font-weight="normal" text-decoration="none" x="1021.809814453125" y="635.419921875">@Service   </text><text fill="#000000" stroke="none" font-family="Arial" font-size="13px" font-style="normal" font-weight="normal" text-decoration="none" x="1042.85546875" y="645.9951171875">user</text></g></g><g transform="translate(-149,-30) scale(1,1)"><rect fill="#d8f2ff" stroke="none" x="1004" y="549" width="103" height="47"/></g><g transform="translate(-149,-30) scale(1,1)"><path fill="none" stroke="#0073ad" d="M 1004 549 L 1107 549 L 1107 596 L 1004 596 L 1004 549 Z Z" stroke-miterlimit="10"/></g><g transform="translate(-149,-30) scale(1,1)"><g><path fill="none" stroke="none"/><text fill="#000000" stroke="none" font-family="Arial" font-size="13px" font-style="normal" font-weight="normal" text-decoration="none" x="1023.61572265625" y="563.419921875">@Service  </text><text fill="#000000" stroke="none" font-family="Arial" font-size="13px" font-style="normal" font-weight="normal" text-decoration="none" x="1034.181396484375" y="576.419921875">sign-up</text></g></g><g transform="translate(-149,-30) scale(1,1)"><rect fill="#d8f2ff" stroke="none" x="1004" y="477" width="103" height="47"/></g><g transform="translate(-149,-30) scale(1,1)"><path fill="none" stroke="#0073ad" d="M 1004 477 L 1107 477 L 1107 524 L 1004 524 L 1004 477 Z Z" stroke-miterlimit="10"/></g><g transform="translate(-149,-30) scale(1,1)"><g><path fill="none" stroke="none"/><text fill="#000000" stroke="none" font-family="Arial" font-size="13px" font-style="normal" font-weight="normal" text-decoration="none" x="1020.00390625" y="491.419921875">@Service    </text><text fill="#000000" stroke="none" font-family="Arial" font-size="13px" font-style="normal" font-weight="normal" text-decoration="none" x="1039.602294921875" y="504.419921875">log-in</text></g></g><g transform="translate(-149,-30) scale(1,1)"><rect fill="#d8f2ff" stroke="none" x="1004" y="405" width="103" height="47"/></g><g transform="translate(-149,-30) scale(1,1)"><path fill="none" stroke="#0073ad" d="M 1004 405 L 1107 405 L 1107 452 L 1004 452 L 1004 405 Z Z" stroke-miterlimit="10"/></g><g transform="translate(-149,-30) scale(1,1)"><g><path fill="none" stroke="none"/><text fill="#000000" stroke="none" font-family="Arial" font-size="13px" font-style="normal" font-weight="normal" text-decoration="none" x="1027.2275390625" y="419.419921875">@Service</text><text fill="#000000" stroke="none" font-family="Arial" font-size="13px" font-style="normal" font-weight="normal" text-decoration="none" x="1019.7373046875" y="432.419921875">itineraryMng</text></g></g><g transform="translate(-149,-30) scale(1,1)"><rect fill="#d8f2ff" stroke="none" x="1004" y="333" width="103" height="47"/></g><g transform="translate(-149,-30) scale(1,1)"><path fill="none" stroke="#0073ad" d="M 1004 333 L 1107 333 L 1107 380 L 1004 380 L 1004 333 Z Z" stroke-miterlimit="10"/></g><g transform="translate(-149,-30) scale(1,1)"><g><path fill="none" stroke="none"/><text fill="#000000" stroke="none" font-family="Arial" font-size="13px" font-style="normal" font-weight="normal" text-decoration="none" x="1027.2275390625" y="347.419921875">@Service</text><text fill="#000000" stroke="none" font-family="Arial" font-size="13px" font-style="normal" font-weight="normal" text-decoration="none" x="1027.31640625" y="360.419921875">placeMng</text></g></g><g transform="translate(-149,-30) scale(1,1)"><rect fill="#d8f2ff" stroke="none" x="1004" y="261" width="103" height="47"/></g><g transform="translate(-149,-30) scale(1,1)"><path fill="none" stroke="#0073ad" d="M 1004 261 L 1107 261 L 1107 308 L 1004 308 L 1004 261 Z Z" stroke-miterlimit="10"/></g><g transform="translate(-149,-30) scale(1,1)"><g><path fill="none" stroke="none"/><text fill="#000000" stroke="none" font-family="Arial" font-size="13px" font-style="normal" font-weight="normal" text-decoration="none" x="1027.2275390625" y="275.419921875">@Service</text><text fill="#000000" stroke="none" font-family="Arial" font-size="13px" font-style="normal" font-weight="normal" text-decoration="none" x="1011.41552734375" y="288.419921875">destinationMng</text></g></g><g transform="translate(-149,-30) scale(1,1)"><rect fill="#d8f2ff" stroke="none" x="1004" y="189" width="103" height="47"/></g><g transform="translate(-149,-30) scale(1,1)"><path fill="none" stroke="#0073ad" d="M 1004 189 L 1107 189 L 1107 236 L 1004 236 L 1004 189 Z Z" stroke-miterlimit="10"/></g><g transform="translate(-149,-30) scale(1,1)"><g><path fill="none" stroke="none"/><text fill="#000000" stroke="none" font-family="Arial" font-size="13px" font-style="normal" font-weight="normal" text-decoration="none" x="1027.2275390625" y="203.419921875">@Service</text><text fill="#000000" stroke="none" font-family="Arial" font-size="13px" font-style="normal" font-weight="normal" text-decoration="none" x="1032.3818359375" y="216.419921875">itinerary</text></g></g><g transform="translate(-149,-30) scale(1,1)"><rect fill="#d8f2ff" stroke="none" x="1004" y="117" width="103" height="47"/></g><g transform="translate(-149,-30) scale(1,1)"><path fill="none" stroke="#0073ad" d="M 1004 117 L 1107 117 L 1107 164 L 1004 164 L 1004 117 Z Z" stroke-miterlimit="10"/></g><g transform="translate(-149,-30) scale(1,1)"><g><path fill="none" stroke="none"/><text fill="#000000" stroke="none" font-family="Arial" font-size="13px" font-style="normal" font-weight="normal" text-decoration="none" x="1025.421630859375" y="131.419921875">@Service </text><text fill="#000000" stroke="none" font-family="Arial" font-size="13px" font-style="normal" font-weight="normal" text-decoration="none" x="1039.9609375" y="144.419921875">place</text></g></g><g transform="translate(-149,-30) scale(1,1)"><rect fill="#d6adff" stroke="none" x="552" y="48" width="143" height="39"/></g><g transform="translate(-149,-30) scale(1,1)"><path fill="none" stroke="#aa56ff" d="M 552 48 L 695 48 L 695 87 L 552 87 L 552 48 Z Z" stroke-miterlimit="10"/></g><g transform="translate(-149,-30) scale(1,1)"><g><path fill="none" stroke="none"/><text fill="#000000" stroke="none" font-family="Arial" font-size="13px" font-style="normal" font-weight="normal" text-decoration="none" x="570.65576171875" y="62.419921875">@Component       </text><text fill="#000000" stroke="none" font-family="Arial" font-size="13px" font-style="normal" font-weight="normal" text-decoration="none" x="585.201416015625" y="75.419921875">add-edit-mng</text></g></g><g transform="translate(-149,-30) scale(1,1)"><rect fill="#d6adff" stroke="none" x="552" y="708" width="143" height="39"/></g><g transform="translate(-149,-30) scale(1,1)"><path fill="none" stroke="#aa56ff" d="M 552 708 L 695 708 L 695 747 L 552 747 L 552 708 Z Z" stroke-miterlimit="10"/></g><g transform="translate(-149,-30) scale(1,1)"><g><path fill="none" stroke="none"/><text fill="#000000" stroke="none" font-family="Arial" font-size="13px" font-style="normal" font-weight="normal" text-decoration="none" x="572.461669921875" y="722.419921875">@Component      </text><text fill="#000000" stroke="none" font-family="Arial" font-size="13px" font-style="normal" font-weight="normal" text-decoration="none" x="602.181396484375" y="735.419921875">sign-up</text></g></g><g transform="translate(-149,-30) scale(1,1)"><rect fill="#d6adff" stroke="none" x="552" y="642" width="143" height="39"/></g><g transform="translate(-149,-30) scale(1,1)"><path fill="none" stroke="#aa56ff" d="M 552 642 L 695 642 L 695 681 L 552 681 L 552 642 Z Z" stroke-miterlimit="10"/></g><g transform="translate(-149,-30) scale(1,1)"><g><path fill="none" stroke="none"/><text fill="#000000" stroke="none" font-family="Arial" font-size="13px" font-style="normal" font-weight="normal" text-decoration="none" x="577.87939453125" y="656.419921875">@Component   </text><text fill="#000000" stroke="none" font-family="Arial" font-size="13px" font-style="normal" font-weight="normal" text-decoration="none" x="603.990478515625" y="669.419921875">search</text></g></g><g transform="translate(-149,-30) scale(1,1)"><rect fill="#d6adff" stroke="none" x="552" y="576" width="143" height="39"/></g><g transform="translate(-149,-30) scale(1,1)"><path fill="none" stroke="#aa56ff" d="M 552 576 L 695 576 L 695 615 L 552 615 L 552 576 Z Z" stroke-miterlimit="10"/></g><g transform="translate(-149,-30) scale(1,1)"><g><path fill="none" stroke="none"/><text fill="#000000" stroke="none" font-family="Arial" font-size="13px" font-style="normal" font-weight="normal" text-decoration="none" x="576.073486328125" y="590.419921875">@Component    </text><text fill="#000000" stroke="none" font-family="Arial" font-size="13px" font-style="normal" font-weight="normal" text-decoration="none" x="604.71728515625" y="603.419921875">review</text></g></g><g transform="translate(-149,-30) scale(1,1)"><rect fill="#d6adff" stroke="none" x="552" y="510" width="143" height="39"/></g><g transform="translate(-149,-30) scale(1,1)"><path fill="none" stroke="#aa56ff" d="M 552 510 L 695 510 L 695 549 L 552 549 L 552 510 Z Z" stroke-miterlimit="10"/></g><g transform="translate(-149,-30) scale(1,1)"><g><path fill="none" stroke="none"/><text fill="#000000" stroke="none" font-family="Arial" font-size="13px" font-style="normal" font-weight="normal" text-decoration="none" x="577.87939453125" y="524.419921875">@Component   </text><text fill="#000000" stroke="none" font-family="Arial" font-size="13px" font-style="normal" font-weight="normal" text-decoration="none" x="603.62548828125" y="537.419921875">navbar</text></g></g><g transform="translate(-149,-30) scale(1,1)"><rect fill="#d6adff" stroke="none" x="552" y="444" width="143" height="39"/></g><g transform="translate(-149,-30) scale(1,1)"><path fill="none" stroke="#aa56ff" d="M 552 444 L 695 444 L 695 483 L 552 483 L 552 444 Z Z" stroke-miterlimit="10"/></g><g transform="translate(-149,-30) scale(1,1)"><g><path fill="none" stroke="none"/><text fill="#000000" stroke="none" font-family="Arial" font-size="13px" font-style="normal" font-weight="normal" text-decoration="none" x="583.297119140625" y="458.419921875">@Component</text><text fill="#000000" stroke="none" font-family="Arial" font-size="13px" font-style="normal" font-weight="normal" text-decoration="none" x="583.754150390625" y="470.404296875">management </text></g></g><g transform="translate(-149,-30) scale(1,1)"><rect fill="#d6adff" stroke="none" x="552" y="378" width="143" height="39"/></g><g transform="translate(-149,-30) scale(1,1)"><path fill="none" stroke="#aa56ff" d="M 552 378 L 695 378 L 695 417 L 552 417 L 552 378 Z Z" stroke-miterlimit="10"/></g><g transform="translate(-149,-30) scale(1,1)"><g><path fill="none" stroke="none"/><text fill="#000000" stroke="none" font-family="Arial" font-size="13px" font-style="normal" font-weight="normal" text-decoration="none" x="568.849853515625" y="392.419921875">@Component        </text><text fill="#000000" stroke="none" font-family="Arial" font-size="13px" font-style="normal" font-weight="normal" text-decoration="none" x="607.602294921875" y="405.419921875">log-in</text></g></g><g transform="translate(-149,-30) scale(1,1)"><rect fill="#d6adff" stroke="none" x="552" y="312" width="143" height="39"/></g><g transform="translate(-149,-30) scale(1,1)"><path fill="none" stroke="#aa56ff" d="M 552 312 L 695 312 L 695 351 L 552 351 L 552 312 Z Z" stroke-miterlimit="10"/></g><g transform="translate(-149,-30) scale(1,1)"><g><path fill="none" stroke="none"/><text fill="#000000" stroke="none" font-family="Arial" font-size="13px" font-style="normal" font-weight="normal" text-decoration="none" x="583.297119140625" y="326.419921875">@Component</text><text fill="#000000" stroke="none" font-family="Arial" font-size="13px" font-style="normal" font-weight="normal" text-decoration="none" x="591.345947265625" y="339.419921875">information</text></g></g><g transform="translate(-149,-30) scale(1,1)"><rect fill="#d6adff" stroke="none" x="552" y="246" width="143" height="39"/></g><g transform="translate(-149,-30) scale(1,1)"><path fill="none" stroke="#aa56ff" d="M 552 246 L 695 246 L 695 285 L 552 285 L 552 246 Z Z" stroke-miterlimit="10"/></g><g transform="translate(-149,-30) scale(1,1)"><g><path fill="none" stroke="none"/><text fill="#000000" stroke="none" font-family="Arial" font-size="13px" font-style="normal" font-weight="normal" text-decoration="none" x="574.267578125" y="260.419921875">@Component     </text><text fill="#000000" stroke="none" font-family="Arial" font-size="13px" font-style="normal" font-weight="normal" text-decoration="none" x="607.240478515625" y="273.419921875">home</text></g></g><g transform="translate(-149,-30) scale(1,1)"><rect fill="#d6adff" stroke="none" x="552" y="180" width="143" height="39"/></g><g transform="translate(-149,-30) scale(1,1)"><path fill="none" stroke="#aa56ff" d="M 552 180 L 695 180 L 695 219 L 552 219 L 552 180 Z Z" stroke-miterlimit="10"/></g><g transform="translate(-149,-30) scale(1,1)"><g><path fill="none" stroke="none"/><text fill="#000000" stroke="none" font-family="Arial" font-size="13px" font-style="normal" font-weight="normal" text-decoration="none" x="572.461669921875" y="194.419921875">@Component      </text><text fill="#000000" stroke="none" font-family="Arial" font-size="13px" font-style="normal" font-weight="normal" text-decoration="none" x="609.7763671875" y="204.9951171875">error</text></g></g><g transform="translate(-149,-30) scale(1,1)"><rect fill="#d6adff" stroke="none" x="552" y="114" width="143" height="39"/></g><g transform="translate(-149,-30) scale(1,1)"><path fill="none" stroke="#aa56ff" d="M 552 114 L 695 114 L 695 153 L 552 153 L 552 114 Z Z" stroke-miterlimit="10"/></g><g transform="translate(-149,-30) scale(1,1)"><g><path fill="none" stroke="none"/><text fill="#000000" stroke="none" font-family="Arial" font-size="13px" font-style="normal" font-weight="normal" text-decoration="none" x="572.461669921875" y="128.419921875">@Component      </text></g></g><g transform="translate(-149,-30) scale(1,1)"><g><path fill="none" stroke="none"/><text fill="#000000" stroke="none" font-family="Arial" font-size="13px" font-style="normal" font-weight="normal" text-decoration="none" x="607.9609375" y="143.419921875">detail</text></g></g><g transform="translate(-149,-30) scale(1,1)"><rect fill="#ffadad" stroke="none" x="159" y="56" width="128" height="40"/></g><g transform="translate(-149,-30) scale(1,1)"><path fill="none" stroke="#ff5656" d="M 159 56 L 287 56 L 287 96 L 159 96 L 159 56 Z Z" stroke-miterlimit="10"/></g><g transform="translate(-149,-30) scale(1,1)"><g><path fill="none" stroke="none"/><text fill="#000000" stroke="none" font-family="Arial" font-size="13px" font-style="normal" font-weight="normal" text-decoration="none" x="177.3857421875" y="70.419921875">@Template       </text><text fill="#000000" stroke="none" font-family="Arial" font-size="13px" font-style="normal" font-weight="normal" text-decoration="none" x="184.701416015625" y="83.419921875">add-edit-mng</text></g></g><g transform="translate(-149,-30) scale(1,1)"><rect fill="#ffadad" stroke="none" x="159" y="686" width="128" height="40"/></g><g transform="translate(-149,-30) scale(1,1)"><path fill="none" stroke="#ff5656" d="M 159 686 L 287 686 L 287 726 L 159 726 L 159 686 Z Z" stroke-miterlimit="10"/></g><g transform="translate(-149,-30) scale(1,1)"><g><path fill="none" stroke="none"/><text fill="#000000" stroke="none" font-family="Arial" font-size="13px" font-style="normal" font-weight="normal" text-decoration="none" x="179.191650390625" y="700.419921875">@Template      </text><text fill="#000000" stroke="none" font-family="Arial" font-size="13px" font-style="normal" font-weight="normal" text-decoration="none" x="201.681396484375" y="713.419921875">sign-up</text></g></g><g transform="translate(-149,-30) scale(1,1)"><rect fill="#ffadad" stroke="none" x="159" y="623" width="128" height="40"/></g><g transform="translate(-149,-30) scale(1,1)"><path fill="none" stroke="#ff5656" d="M 159 623 L 287 623 L 287 663 L 159 663 L 159 623 Z Z" stroke-miterlimit="10"/></g><g transform="translate(-149,-30) scale(1,1)"><g><path fill="none" stroke="none"/><text fill="#000000" stroke="none" font-family="Arial" font-size="13px" font-style="normal" font-weight="normal" text-decoration="none" x="184.609375" y="637.419921875">@Template   </text><text fill="#000000" stroke="none" font-family="Arial" font-size="13px" font-style="normal" font-weight="normal" text-decoration="none" x="203.490478515625" y="650.419921875">search</text></g></g><g transform="translate(-149,-30) scale(1,1)"><rect fill="#ffadad" stroke="none" x="159" y="560" width="128" height="40"/></g><g transform="translate(-149,-30) scale(1,1)"><path fill="none" stroke="#ff5656" d="M 159 560 L 287 560 L 287 600 L 159 600 L 159 560 Z Z" stroke-miterlimit="10"/></g><g transform="translate(-149,-30) scale(1,1)"><g><path fill="none" stroke="none"/><text fill="#000000" stroke="none" font-family="Arial" font-size="13px" font-style="normal" font-weight="normal" text-decoration="none" x="182.803466796875" y="574.419921875">@Template    </text><text fill="#000000" stroke="none" font-family="Arial" font-size="13px" font-style="normal" font-weight="normal" text-decoration="none" x="204.21728515625" y="587.419921875">review</text></g></g><g transform="translate(-149,-30) scale(1,1)"><rect fill="#ffadad" stroke="none" x="159" y="497" width="128" height="40"/></g><g transform="translate(-149,-30) scale(1,1)"><path fill="none" stroke="#ff5656" d="M 159 497 L 287 497 L 287 537 L 159 537 L 159 497 Z Z" stroke-miterlimit="10"/></g><g transform="translate(-149,-30) scale(1,1)"><g><path fill="none" stroke="none"/><text fill="#000000" stroke="none" font-family="Arial" font-size="13px" font-style="normal" font-weight="normal" text-decoration="none" x="184.609375" y="511.419921875">@Template   </text><text fill="#000000" stroke="none" font-family="Arial" font-size="13px" font-style="normal" font-weight="normal" text-decoration="none" x="203.12548828125" y="524.419921875">navbar</text></g></g><g transform="translate(-149,-30) scale(1,1)"><rect fill="#ffadad" stroke="none" x="159" y="434" width="128" height="40"/></g><g transform="translate(-149,-30) scale(1,1)"><path fill="none" stroke="#ff5656" d="M 159 434 L 287 434 L 287 474 L 159 474 L 159 434 Z Z" stroke-miterlimit="10"/></g><g transform="translate(-149,-30) scale(1,1)"><g><path fill="none" stroke="none"/><text fill="#000000" stroke="none" font-family="Arial" font-size="13px" font-style="normal" font-weight="normal" text-decoration="none" x="188.22119140625" y="448.419921875">@Template </text><text fill="#000000" stroke="none" font-family="Arial" font-size="13px" font-style="normal" font-weight="normal" text-decoration="none" x="183.254150390625" y="460.404296875">management </text></g></g><g transform="translate(-149,-30) scale(1,1)"><rect fill="#ffadad" stroke="none" x="159" y="371" width="128" height="40"/></g><g transform="translate(-149,-30) scale(1,1)"><path fill="none" stroke="#ff5656" d="M 159 371 L 287 371 L 287 411 L 159 411 L 159 371 Z Z" stroke-miterlimit="10"/></g><g transform="translate(-149,-30) scale(1,1)"><g><path fill="none" stroke="none"/><text fill="#000000" stroke="none" font-family="Arial" font-size="13px" font-style="normal" font-weight="normal" text-decoration="none" x="175.579833984375" y="385.419921875">@Template        </text><text fill="#000000" stroke="none" font-family="Arial" font-size="13px" font-style="normal" font-weight="normal" text-decoration="none" x="207.102294921875" y="398.419921875">log-in</text></g></g><g transform="translate(-149,-30) scale(1,1)"><rect fill="#ffadad" stroke="none" x="159" y="308" width="128" height="40"/></g><g transform="translate(-149,-30) scale(1,1)"><path fill="none" stroke="#ff5656" d="M 159 308 L 287 308 L 287 348 L 159 348 L 159 308 Z Z" stroke-miterlimit="10"/></g><g transform="translate(-149,-30) scale(1,1)"><g><path fill="none" stroke="none"/><text fill="#000000" stroke="none" font-family="Arial" font-size="13px" font-style="normal" font-weight="normal" text-decoration="none" x="188.22119140625" y="322.419921875">@Template </text><text fill="#000000" stroke="none" font-family="Arial" font-size="13px" font-style="normal" font-weight="normal" text-decoration="none" x="190.845947265625" y="335.419921875">information</text></g></g><g transform="translate(-149,-30) scale(1,1)"><rect fill="#ffadad" stroke="none" x="159" y="245" width="128" height="40"/></g><g transform="translate(-149,-30) scale(1,1)"><path fill="none" stroke="#ff5656" d="M 159 245 L 287 245 L 287 285 L 159 285 L 159 245 Z Z" stroke-miterlimit="10"/></g><g transform="translate(-149,-30) scale(1,1)"><g><path fill="none" stroke="none"/><text fill="#000000" stroke="none" font-family="Arial" font-size="13px" font-style="normal" font-weight="normal" text-decoration="none" x="180.99755859375" y="259.419921875">@Template     </text><text fill="#000000" stroke="none" font-family="Arial" font-size="13px" font-style="normal" font-weight="normal" text-decoration="none" x="206.740478515625" y="272.419921875">home</text></g></g><g transform="translate(-149,-30) scale(1,1)"><rect fill="#ffadad" stroke="none" x="159" y="182" width="128" height="40"/></g><g transform="translate(-149,-30) scale(1,1)"><path fill="none" stroke="#ff5656" d="M 159 182 L 287 182 L 287 222 L 159 222 L 159 182 Z Z" stroke-miterlimit="10"/></g><g transform="translate(-149,-30) scale(1,1)"><g><path fill="none" stroke="none"/><text fill="#000000" stroke="none" font-family="Arial" font-size="13px" font-style="normal" font-weight="normal" text-decoration="none" x="179.191650390625" y="196.419921875">@Template      </text><text fill="#000000" stroke="none" font-family="Arial" font-size="13px" font-style="normal" font-weight="normal" text-decoration="none" x="209.2763671875" y="206.9951171875">error</text></g></g><g transform="translate(-149,-30) scale(1,1)"><rect fill="#ffadad" stroke="none" x="159" y="119" width="128" height="40"/></g><g transform="translate(-149,-30) scale(1,1)"><path fill="none" stroke="#ff5656" d="M 159 119 L 287 119 L 287 159 L 159 159 L 159 119 Z Z" stroke-miterlimit="10"/></g><g transform="translate(-149,-30) scale(1,1)"><g><path fill="none" stroke="none"/><text fill="#000000" stroke="none" font-family="Arial" font-size="13px" font-style="normal" font-weight="normal" text-decoration="none" x="180.99755859375" y="133.419921875">@Template     </text><text fill="#000000" stroke="none" font-family="Arial" font-size="13px" font-style="normal" font-weight="normal" text-decoration="none" x="207.4609375" y="146.419921875">detail</text></g></g><g transform="translate(-149,-30) scale(1,1)"><path fill="none" stroke="#ff7f00" d="M 696 72 L 768 72 L 768 440 L 1003 440" stroke-miterlimit="10"/></g><g transform="translate(-149,-30) scale(1,1)"><path fill="none" stroke="#ff7f00" d="M 992.8373251423759 444.209517756016 L 1003 440 L 992.8373251423758 435.790482243984" stroke-miterlimit="10"/></g><g transform="translate(-149,-30) scale(1,1)"><path fill="none" stroke="#ff7f00" d="M 696 128 L 856 128 L 856 74 L 1005 74" stroke-miterlimit="10"/></g><g transform="translate(-149,-30) scale(1,1)"><path fill="none" stroke="#ff7f00" d="M 994.8373251423759 78.20951775601598 L 1005 74 L 994.8373251423758 69.79048224398402" stroke-miterlimit="10"/></g><g transform="translate(-149,-30) scale(1,1)"><path fill="none" stroke="#000000" d="M 848 128 L 848 128" stroke-miterlimit="10"/></g><g transform="translate(-149,-30) scale(1,1)"><path fill="none" stroke="#ff7f00" d="M 856 136 L 1005 136" stroke-miterlimit="10"/></g><g transform="translate(-149,-30) scale(1,1)"><path fill="none" stroke="#ff7f00" d="M 994.8373251423759 140.209517756016 L 1005 136 L 994.8373251423758 131.790482243984" stroke-miterlimit="10"/></g><g transform="translate(-149,-30) scale(1,1)"><path fill="none" stroke="#ff7f00" d="M 856 128 L 856 216 L 1003 216" stroke-miterlimit="10"/></g><g transform="translate(-149,-30) scale(1,1)"><path fill="none" stroke="#ff7f00" d="M 992.8373251423759 220.209517756016 L 1003 216 L 992.8373251423758 211.790482243984" stroke-miterlimit="10"/></g><g transform="translate(-149,-30) scale(1,1)"><path fill="none" stroke="#ff7f00" d="M 856 192 L 856 642 L 1005 642" stroke-miterlimit="10"/></g><g transform="translate(-149,-30) scale(1,1)"><path fill="none" stroke="#ff7f00" d="M 994.8373251423759 646.209517756016 L 1005 642 L 994.8373251423758 637.790482243984" stroke-miterlimit="10"/></g><g transform="translate(-149,-30) scale(1,1)"><path fill="none" stroke="#ff7f00" d="M 696 256 L 904 256 L 904 53 L 1003 53" stroke-miterlimit="10"/></g><g transform="translate(-149,-30) scale(1,1)"><path fill="none" stroke="#ff7f00" d="M 992.8373251423759 57.20951775601599 L 1003 53 L 992.8373251423758 48.790482243984016" stroke-miterlimit="10"/></g><g transform="translate(-149,-30) scale(1,1)"><path fill="none" stroke="#ff7f00" d="M 904 152 L 1003 152" stroke-miterlimit="10"/></g><g transform="translate(-149,-30) scale(1,1)"><path fill="none" stroke="#ff7f00" d="M 992.8373251423759 156.209517756016 L 1003 152 L 992.8373251423758 147.790482243984" stroke-miterlimit="10"/></g><g transform="translate(-149,-30) scale(1,1)"><path fill="none" stroke="#ff7f00" d="M 904 232 L 1003 232" stroke-miterlimit="10"/></g><g transform="translate(-149,-30) scale(1,1)"><path fill="none" stroke="#ff7f00" d="M 992.8373251423759 236.209517756016 L 1003 232 L 992.8373251423758 227.790482243984" stroke-miterlimit="10"/></g><g transform="translate(-149,-30) scale(1,1)"><path fill="none" stroke="#ff7f00" d="M 904 256 L 904 504 L 1000 504" stroke-miterlimit="10"/></g><g transform="translate(-149,-30) scale(1,1)"><path fill="none" stroke="#ff7f00" d="M 989.8373251423759 508.209517756016 L 1000 504 L 989.8373251423758 499.790482243984" stroke-miterlimit="10"/></g><g transform="translate(-149,-30) scale(1,1)"><path fill="none" stroke="#ff7f00" d="M 696 336 L 816 336 L 816 660 L 1004 660" stroke-miterlimit="10"/></g><g transform="translate(-149,-30) scale(1,1)"><path fill="none" stroke="#ff7f00" d="M 993.8373251423759 664.209517756016 L 1004 660 L 993.8373251423758 655.790482243984" stroke-miterlimit="10"/></g><g transform="translate(-149,-30) scale(1,1)"><path fill="none" stroke="#ff7f00" d="M 816 336 L 816 64 L 1000 64" stroke-miterlimit="10"/></g><g transform="translate(-149,-30) scale(1,1)"><path fill="none" stroke="#ff7f00" d="M 989.8373251423759 68.20951775601598 L 1000 64 L 989.8373251423758 59.790482243984016" stroke-miterlimit="10"/></g><g transform="translate(-149,-30) scale(1,1)"><path fill="none" stroke="#ff7f00" d="M 816 120 L 1004 120" stroke-miterlimit="10"/></g><g transform="translate(-149,-30) scale(1,1)"><path fill="none" stroke="#ff7f00" d="M 993.8373251423759 124.20951775601598 L 1004 120 L 993.8373251423758 115.79048224398402" stroke-miterlimit="10"/></g><g transform="translate(-149,-30) scale(1,1)"><path fill="none" stroke="#ff7f00" d="M 816 192 L 1005 192" stroke-miterlimit="10"/></g><g transform="translate(-149,-30) scale(1,1)"><path fill="none" stroke="#ff7f00" d="M 994.8373251423759 196.209517756016 L 1005 192 L 994.8373251423758 187.790482243984" stroke-miterlimit="10"/></g><g transform="translate(-149,-30) scale(1,1)"><path fill="none" stroke="#ff7f00" d="M 696 408 L 752 408 L 752 480 L 1006 480" stroke-miterlimit="10"/></g><g transform="translate(-149,-30) scale(1,1)"><path fill="none" stroke="#ff7f00" d="M 995.8373251423759 484.209517756016 L 1006 480 L 995.8373251423758 475.790482243984" stroke-miterlimit="10"/></g><g transform="translate(-149,-30) scale(1,1)"><path fill="none" stroke="#ff7f00" d="M 696 464 L 880 464 L 880 272 L 1003 272" stroke-miterlimit="10"/></g><g transform="translate(-149,-30) scale(1,1)"><path fill="none" stroke="#ff7f00" d="M 992.8373251423759 276.209517756016 L 1003 272 L 992.8373251423758 267.790482243984" stroke-miterlimit="10"/></g><g transform="translate(-149,-30) scale(1,1)"><path fill="none" stroke="#ff7f00" d="M 880 360 L 1004 360" stroke-miterlimit="10"/></g><g transform="translate(-149,-30) scale(1,1)"><path fill="none" stroke="#ff7f00" d="M 993.8373251423759 364.209517756016 L 1004 360 L 993.8373251423758 355.790482243984" stroke-miterlimit="10"/></g><g transform="translate(-149,-30) scale(1,1)"><path fill="none" stroke="#ff7f00" d="M 880 424 L 1004 424" stroke-miterlimit="10"/></g><g transform="translate(-149,-30) scale(1,1)"><path fill="none" stroke="#ff7f00" d="M 993.8373251423759 428.209517756016 L 1004 424 L 993.8373251423758 419.790482243984" stroke-miterlimit="10"/></g><g transform="translate(-149,-30) scale(1,1)"><path fill="none" stroke="#ff7f00" d="M 1008 704 L 880 704 L 880 462" stroke-miterlimit="10"/></g><g transform="translate(-149,-30) scale(1,1)"><path fill="none" stroke="#ff7f00" d="M 997.8373251423759 708.209517756016 L 1008 704 L 997.8373251423758 699.790482243984" stroke-miterlimit="10"/></g><g transform="translate(-149,-30) scale(1,1)"><path fill="none" stroke="#ff7f00" d="M 880 624 L 1005 626" stroke-miterlimit="10"/></g><g transform="translate(-149,-30) scale(1,1)"><path fill="none" stroke="#ff7f00" d="M 994.7712820503942 630.0463970526151 L 1005 626 L 994.9059693797118 621.6284389702666" stroke-miterlimit="10"/></g><g transform="translate(-149,-30) scale(1,1)"><path fill="none" stroke="#000000" d="M 720 552 L 720 552" stroke-miterlimit="10"/></g><g transform="translate(-149,-30) scale(1,1)"><path fill="none" stroke="#ff7f00" d="M 696 520 L 1003 520" stroke-miterlimit="10"/></g><g transform="translate(-149,-30) scale(1,1)"><path fill="none" stroke="#ff7f00" d="M 992.8373251423759 524.209517756016 L 1003 520 L 992.8373251423758 515.790482243984" stroke-miterlimit="10"/></g><g transform="translate(-149,-30) scale(1,1)"><path fill="none" stroke="#ff7f00" d="M 696 616 L 1027 616 L 1027 624" stroke-miterlimit="10"/></g><g transform="translate(-149,-30) scale(1,1)"><path fill="none" stroke="#ff7f00" d="M 1022.790482243984 613.8373251423759 L 1027 624 L 1031.2095177560159 613.8373251423759" stroke-miterlimit="10"/></g><g transform="translate(-149,-30) scale(1,1)"><path fill="none" stroke="#ff7f00" d="M 696 728 L 752 728 L 752 582 L 1004 582" stroke-miterlimit="10"/></g><g transform="translate(-149,-30) scale(1,1)"><path fill="none" stroke="#ff7f00" d="M 993.8373251423759 586.209517756016 L 1004 582 L 993.8373251423758 577.790482243984" stroke-miterlimit="10"/></g><g transform="translate(-149,-30) scale(1,1)"><path fill="none" stroke="#0000d1" d="M 552 72 L 287 73" stroke-miterlimit="10"/></g><g transform="translate(-149,-30) scale(1,1)"><path fill="none" stroke="#0000d1" d="M 297.1467176408765 68.75216277191257 L 287 73 L 297.1784873600062 77.17113834129165" stroke-miterlimit="10"/></g><g transform="translate(-149,-30) scale(1,1)"><path fill="none" stroke="#0000d1" d="M 552 136 L 287 136" stroke-miterlimit="10"/></g><g transform="translate(-149,-30) scale(1,1)"><path fill="none" stroke="#0000d1" d="M 297.16267485762415 131.790482243984 L 287 136 L 297.16267485762415 140.209517756016" stroke-miterlimit="10"/></g><g transform="translate(-149,-30) scale(1,1)"><path fill="none" stroke="#0000d1" d="M 552 200 L 286 203" stroke-miterlimit="10"/></g><g transform="translate(-149,-30) scale(1,1)"><path fill="none" stroke="#0000d1" d="M 296.11455583982627 198.67614059397906 L 286 203 L 296.20950132992584 207.09464071613652" stroke-miterlimit="10"/></g><g transform="translate(-149,-30) scale(1,1)"><path fill="none" stroke="#0000d1" d="M 552 264 L 286 266" stroke-miterlimit="10"/></g><g transform="translate(-149,-30) scale(1,1)"><path fill="none" stroke="#0000d1" d="M 296.130737995226 261.7141922964179 L 286 266 L 296.19403722491296 270.13298984478405" stroke-miterlimit="10"/></g><g transform="translate(-149,-30) scale(1,1)"><path fill="none" stroke="#0000d1" d="M 552 336 L 285 338" stroke-miterlimit="10"/></g><g transform="translate(-149,-30) scale(1,1)"><path fill="none" stroke="#0000d1" d="M 295.13085867399343 333.7144775665537 L 285 338 L 295.1939208412403 342.13327689400637" stroke-miterlimit="10"/></g><g transform="translate(-149,-30) scale(1,1)"><path fill="none" stroke="#0000d1" d="M 552 400 L 285 398" stroke-miterlimit="10"/></g><g transform="translate(-149,-30) scale(1,1)"><path fill="none" stroke="#0000d1" d="M 295.1939208412403 393.86672310599363 L 285 398 L 295.13085867399343 402.2855224334463" stroke-miterlimit="10"/></g><g transform="translate(-149,-30) scale(1,1)"><path fill="none" stroke="#0000d1" d="M 552 464 L 287 465" stroke-miterlimit="10"/></g><g transform="translate(-149,-30) scale(1,1)"><path fill="none" stroke="#0000d1" d="M 297.1467176408765 460.75216277191254 L 287 465 L 297.1784873600062 469.1711383412916" stroke-miterlimit="10"/></g><g transform="translate(-149,-30) scale(1,1)"><path fill="none" stroke="#0000d1" d="M 552 520 L 286 520" stroke-miterlimit="10"/></g><g transform="translate(-149,-30) scale(1,1)"><path fill="none" stroke="#0000d1" d="M 296.16267485762415 515.790482243984 L 286 520 L 296.16267485762415 524.209517756016" stroke-miterlimit="10"/></g><g transform="translate(-149,-30) scale(1,1)"><path fill="none" stroke="#0000d1" d="M 552 592 L 287 592" stroke-miterlimit="10"/></g><g transform="translate(-149,-30) scale(1,1)"><path fill="none" stroke="#0000d1" d="M 297.16267485762415 587.790482243984 L 287 592 L 297.16267485762415 596.209517756016" stroke-miterlimit="10"/></g><g transform="translate(-149,-30) scale(1,1)"><path fill="none" stroke="#0000d1" d="M 552 656 L 287 655" stroke-miterlimit="10"/></g><g transform="translate(-149,-30) scale(1,1)"><path fill="none" stroke="#0000d1" d="M 297.1784873600062 650.8288616587083 L 287 655 L 297.1467176408765 659.2478372280874" stroke-miterlimit="10"/></g><g transform="translate(-149,-30) scale(1,1)"><path fill="none" stroke="#0000d1" d="M 552 720 L 285 722" stroke-miterlimit="10"/></g><g transform="translate(-149,-30) scale(1,1)"><path fill="none" stroke="#0000d1" d="M 295.13085867399343 717.7144775665537 L 285 722 L 295.1939208412403 726.1332768940064" stroke-miterlimit="10"/></g><g transform="translate(-149,-30) scale(1,1)"><rect fill="#d6adff" stroke="none" x="552" y="774" width="143" height="39"/></g><g transform="translate(-149,-30) scale(1,1)"><path fill="none" stroke="#aa56ff" d="M 552 774 L 695 774 L 695 813 L 552 813 L 552 774 Z Z" stroke-miterlimit="10"/></g><g transform="translate(-149,-30) scale(1,1)"><g><path fill="none" stroke="none"/><text fill="#000000" stroke="none" font-family="Arial" font-size="13px" font-style="normal" font-weight="normal" text-decoration="none" x="572.461669921875" y="788.419921875">@Component      </text><text fill="#000000" stroke="none" font-family="Arial" font-size="13px" font-style="normal" font-weight="normal" text-decoration="none" x="605.79638671875" y="801.419921875">profile</text></g></g><g transform="translate(-149,-30) scale(1,1)"><rect fill="#ffadad" stroke="none" x="160" y="744" width="128" height="40"/></g><g transform="translate(-149,-30) scale(1,1)"><path fill="none" stroke="#ff5656" d="M 160 744 L 288 744 L 288 784 L 160 784 L 160 744 Z Z" stroke-miterlimit="10"/></g><g transform="translate(-149,-30) scale(1,1)"><g><path fill="none" stroke="none"/><text fill="#000000" stroke="none" font-family="Arial" font-size="13px" font-style="normal" font-weight="normal" text-decoration="none" x="180.191650390625" y="758.419921875">@Template      </text><text fill="#000000" stroke="none" font-family="Arial" font-size="13px" font-style="normal" font-weight="normal" text-decoration="none" x="206.29638671875" y="771.419921875">profile</text></g></g><g transform="translate(-149,-30) scale(1,1)"><path fill="none" stroke="#ff7f00" d="M 888 672 L 1004 671" stroke-miterlimit="10"/></g><g transform="translate(-149,-30) scale(1,1)"><path fill="none" stroke="#ff7f00" d="M 993.8739903452937 675.2969673576599 L 1004 671 L 993.8014151496582 666.8782446639353" stroke-miterlimit="10"/></g><g transform="translate(-149,-30) scale(1,1)"><path fill="none" stroke="#0000d1" d="M 552 784 L 288 784" stroke-miterlimit="10"/></g><g transform="translate(-149,-30) scale(1,1)"><path fill="none" stroke="#0000d1" d="M 298.16267485762415 779.790482243984 L 288 784 L 298.16267485762415 788.209517756016" stroke-miterlimit="10"/></g><g transform="translate(-149,-30) scale(1,1)"><rect fill="#d6adff" stroke="none" x="552" y="840" width="143" height="39"/></g><g transform="translate(-149,-30) scale(1,1)"><path fill="none" stroke="#aa56ff" d="M 552 840 L 695 840 L 695 879 L 552 879 L 552 840 Z Z" stroke-miterlimit="10"/></g><g transform="translate(-149,-30) scale(1,1)"><g><path fill="none" stroke="none"/><text fill="#000000" stroke="none" font-family="Arial" font-size="13px" font-style="normal" font-weight="normal" text-decoration="none" x="572.461669921875" y="854.419921875">@Component      </text><text fill="#000000" stroke="none" font-family="Arial" font-size="13px" font-style="normal" font-weight="normal" text-decoration="none" x="603.990478515625" y="867.419921875">search</text></g></g><g transform="translate(-149,-30) scale(1,1)"><rect fill="#ffadad" stroke="none" x="160" y="808" width="128" height="40"/></g><g transform="translate(-149,-30) scale(1,1)"><path fill="none" stroke="#ff5656" d="M 160 808 L 288 808 L 288 848 L 160 848 L 160 808 Z Z" stroke-miterlimit="10"/></g><g transform="translate(-149,-30) scale(1,1)"><g><path fill="none" stroke="none"/><text fill="#000000" stroke="none" font-family="Arial" font-size="13px" font-style="normal" font-weight="normal" text-decoration="none" x="180.191650390625" y="822.419921875">@Template      </text><text fill="#000000" stroke="none" font-family="Arial" font-size="13px" font-style="normal" font-weight="normal" text-decoration="none" x="204.490478515625" y="835.419921875">search</text></g></g><g transform="translate(-149,-30) scale(1,1)"><path fill="none" stroke="#0000d1" d="M 552 840 L 288 838" stroke-miterlimit="10"/></g><g transform="translate(-149,-30) scale(1,1)"><path fill="none" stroke="#0000d1" d="M 298.19427261248063 833.8675907871525 L 288 838 L 298.1304938705916 842.2863847165071" stroke-miterlimit="10"/></g><g transform="translate(-149,-30) scale(1,1)"><path fill="none" stroke="#ff7f00" d="M 696 856 L 784 856 L 784 202 L 1003 202" stroke-miterlimit="10"/></g><g transform="translate(-149,-30) scale(1,1)"><path fill="none" stroke="#ff7f00" d="M 992.8373251423759 206.209517756016 L 1003 202 L 992.8373251423758 197.790482243984" stroke-miterlimit="10"/></g><g transform="translate(-149,-30) scale(1,1)"><path fill="none" stroke="#ff7f00" d="M 784 208 L 784 163 L 1004 163" stroke-miterlimit="10"/></g><g transform="translate(-149,-30) scale(1,1)"><path fill="none" stroke="#ff7f00" d="M 993.8373251423759 167.209517756016 L 1004 163 L 993.8373251423758 158.790482243984" stroke-miterlimit="10"/></g><g transform="translate(-149,-30) scale(1,1)"><path fill="none" stroke="#ff7f00" d="M 784 168 L 784 92 L 1004 92" stroke-miterlimit="10"/></g><g transform="translate(-149,-30) scale(1,1)"><path fill="none" stroke="#ff7f00" d="M 993.8373251423759 96.20951775601598 L 1004 92 L 993.8373251423758 87.79048224398402" stroke-miterlimit="10"/></g></g></svg>