<svg version="1.1" xmlns="http://www.w3.org/2000/svg" xmlns:xlink="http://www.w3.org/1999/xlink" width="1213.5078125" height="333"><defs/><g><g transform="translate(-94,-85) scale(1,1)"><rect fill="#C0C0C0" stroke="none" x="111" y="102" width="239.69775390625" height="150" opacity="0.2"/></g><g transform="translate(-94,-85) scale(1,1)"><rect fill="#ffffff" stroke="none" x="104" y="95" width="239.69775390625" height="150"/></g><g transform="translate(-94,-85) scale(1,1)"><path fill="none" stroke="#000000" d="M 104 95 L 343.69775390625 95 L 343.69775390625 245 L 104 245 L 104 95 Z Z" stroke-miterlimit="10"/></g><g transform="translate(-94,-85) scale(1,1)"><path fill="none" stroke="#000000" d="M 104 118 L 343.69775390625 118" stroke-miterlimit="10"/></g><g transform="translate(-94,-85) scale(1,1)"><path fill="none" stroke="#000000" d="M 132.05908203125 118 L 132.05908203125 245" stroke-miterlimit="10"/></g><g transform="translate(-94,-85) scale(1,1)"><path fill="none" stroke="#000000" d="M 240.314453125 118 L 240.314453125 245" stroke-miterlimit="10"/></g><g transform="translate(-94,-85) scale(1,1)"><g><path fill="none" stroke="none"/><text fill="#000000" stroke="none" font-family="Arial" font-size="13px" font-style="normal" font-weight="bold" text-decoration="none" x="210.118896484375" y="110">user</text></g></g><g transform="translate(-94,-85) scale(1,1)"><g><path fill="none" stroke="none"/><text fill="#000000" stroke="none" font-family="Arial" font-size="13px" font-style="normal" font-weight="normal" text-decoration="none" x="109" y="132">PK</text></g></g><g transform="translate(-94,-85) scale(1,1)"><g><path fill="none" stroke="none"/><text fill="#000000" stroke="none" font-family="Arial" font-size="13px" font-style="normal" font-weight="normal" text-decoration="none" x="137.05908203125" y="132">id</text></g></g><g transform="translate(-94,-85) scale(1,1)"><g><path fill="none" stroke="none"/><text fill="#000000" stroke="none" font-family="Arial" font-size="13px" font-style="normal" font-weight="normal" text-decoration="none" x="245.314453125" y="132">BIGINT(20)</text></g></g><g transform="translate(-94,-85) scale(1,1)"><g><path fill="none" stroke="none"/><text fill="#000000" stroke="none" font-family="Arial" font-size="13px" font-style="normal" font-weight="normal" text-decoration="none" x="109" y="129"></text></g></g><g transform="translate(-94,-85) scale(1,1)"><g><path fill="none" stroke="none"/><text fill="#000000" stroke="none" font-family="Arial" font-size="13px" font-style="normal" font-weight="normal" text-decoration="none" x="109" y="138"></text></g></g><g transform="translate(-94,-85) scale(1,1)"><g><path fill="none" stroke="none"/><text fill="#000000" stroke="none" font-family="Arial" font-size="13px" font-style="normal" font-weight="normal" text-decoration="none" x="137.05908203125" y="146">username</text></g></g><g transform="translate(-94,-85) scale(1,1)"><g><path fill="none" stroke="none"/><text fill="#000000" stroke="none" font-family="Arial" font-size="13px" font-style="normal" font-weight="normal" text-decoration="none" x="245.314453125" y="147">VARCHAR(50)</text></g></g><g transform="translate(-94,-85) scale(1,1)"><g><path fill="none" stroke="none"/><text fill="#000000" stroke="none" font-family="Arial" font-size="13px" font-style="normal" font-weight="normal" text-decoration="none" x="109" y="144"></text></g></g><g transform="translate(-94,-85) scale(1,1)"><g><path fill="none" stroke="none"/><text fill="#000000" stroke="none" font-family="Arial" font-size="13px" font-style="normal" font-weight="normal" text-decoration="none" x="109" y="153"></text></g></g><g transform="translate(-94,-85) scale(1,1)"><g><path fill="none" stroke="none"/><text fill="#000000" stroke="none" font-family="Arial" font-size="13px" font-style="normal" font-weight="normal" text-decoration="none" x="137.05908203125" y="162">first_name</text></g></g><g transform="translate(-94,-85) scale(1,1)"><g><path fill="none" stroke="none"/><text fill="#000000" stroke="none" font-family="Arial" font-size="13px" font-style="normal" font-weight="normal" text-decoration="none" x="245.314453125" y="162">VARCHAR(50)</text></g></g><g transform="translate(-94,-85) scale(1,1)"><g><path fill="none" stroke="none"/><text fill="#000000" stroke="none" font-family="Arial" font-size="13px" font-style="normal" font-weight="normal" text-decoration="none" x="109" y="159"></text></g></g><g transform="translate(-94,-85) scale(1,1)"><g><path fill="none" stroke="none"/><text fill="#000000" stroke="none" font-family="Arial" font-size="13px" font-style="normal" font-weight="normal" text-decoration="none" x="109" y="168"></text></g></g><g transform="translate(-94,-85) scale(1,1)"><g><path fill="none" stroke="none"/><text fill="#000000" stroke="none" font-family="Arial" font-size="13px" font-style="normal" font-weight="normal" text-decoration="none" x="137.05908203125" y="177">last_name</text></g></g><g transform="translate(-94,-85) scale(1,1)"><g><path fill="none" stroke="none"/><text fill="#000000" stroke="none" font-family="Arial" font-size="13px" font-style="normal" font-weight="normal" text-decoration="none" x="245.314453125" y="177">VARCHAR(100)</text></g></g><g transform="translate(-94,-85) scale(1,1)"><g><path fill="none" stroke="none"/><text fill="#000000" stroke="none" font-family="Arial" font-size="13px" font-style="normal" font-weight="normal" text-decoration="none" x="109" y="174"></text></g></g><g transform="translate(-94,-85) scale(1,1)"><g><path fill="none" stroke="none"/><text fill="#000000" stroke="none" font-family="Arial" font-size="13px" font-style="normal" font-weight="normal" text-decoration="none" x="109" y="183"></text></g></g><g transform="translate(-94,-85) scale(1,1)"><g><path fill="none" stroke="none"/><text fill="#000000" stroke="none" font-family="Arial" font-size="13px" font-style="normal" font-weight="normal" text-decoration="none" x="137.05908203125" y="192">country</text></g></g><g transform="translate(-94,-85) scale(1,1)"><g><path fill="none" stroke="none"/><text fill="#000000" stroke="none" font-family="Arial" font-size="13px" font-style="normal" font-weight="normal" text-decoration="none" x="245.314453125" y="192">VARCHAR(50)</text></g></g><g transform="translate(-94,-85) scale(1,1)"><g><path fill="none" stroke="none"/><text fill="#000000" stroke="none" font-family="Arial" font-size="13px" font-style="normal" font-weight="normal" text-decoration="none" x="109" y="189"></text></g></g><g transform="translate(-94,-85) scale(1,1)"><g><path fill="none" stroke="none"/><text fill="#000000" stroke="none" font-family="Arial" font-size="13px" font-style="normal" font-weight="normal" text-decoration="none" x="109" y="198"></text></g></g><g transform="translate(-94,-85) scale(1,1)"><g><path fill="none" stroke="none"/><text fill="#000000" stroke="none" font-family="Arial" font-size="13px" font-style="normal" font-weight="normal" text-decoration="none" x="137.05908203125" y="207">email</text></g></g><g transform="translate(-94,-85) scale(1,1)"><g><path fill="none" stroke="none"/><text fill="#000000" stroke="none" font-family="Arial" font-size="13px" font-style="normal" font-weight="normal" text-decoration="none" x="245.314453125" y="207">VARCHAR(100)</text></g></g><g transform="translate(-94,-85) scale(1,1)"><g><path fill="none" stroke="none"/><text fill="#000000" stroke="none" font-family="Arial" font-size="13px" font-style="normal" font-weight="normal" text-decoration="none" x="109" y="204"></text></g></g><g transform="translate(-94,-85) scale(1,1)"><g><path fill="none" stroke="none"/><text fill="#000000" stroke="none" font-family="Arial" font-size="13px" font-style="normal" font-weight="normal" text-decoration="none" x="109" y="213"></text></g></g><g transform="translate(-94,-85) scale(1,1)"><g><path fill="none" stroke="none"/><text fill="#000000" stroke="none" font-family="Arial" font-size="13px" font-style="normal" font-weight="normal" text-decoration="none" x="137.05908203125" y="222">password_hash</text></g></g><g transform="translate(-94,-85) scale(1,1)"><g><path fill="none" stroke="none"/><text fill="#000000" stroke="none" font-family="Arial" font-size="13px" font-style="normal" font-weight="normal" text-decoration="none" x="245.314453125" y="222">VARCHAR(255)</text></g></g><g transform="translate(-94,-85) scale(1,1)"><g><path fill="none" stroke="none"/><text fill="#000000" stroke="none" font-family="Arial" font-size="13px" font-style="normal" font-weight="normal" text-decoration="none" x="109" y="219"></text></g></g><g transform="translate(-94,-85) scale(1,1)"><g><path fill="none" stroke="none"/><text fill="#000000" stroke="none" font-family="Arial" font-size="13px" font-style="normal" font-weight="normal" text-decoration="none" x="109" y="228"></text></g></g><g transform="translate(-94,-85) scale(1,1)"><g><path fill="none" stroke="none"/><text fill="#000000" stroke="none" font-family="Arial" font-size="13px" font-style="normal" font-weight="normal" text-decoration="none" x="137.05908203125" y="237">image</text></g></g><g transform="translate(-94,-85) scale(1,1)"><g><path fill="none" stroke="none"/><text fill="#000000" stroke="none" font-family="Arial" font-size="13px" font-style="normal" font-weight="normal" text-decoration="none" x="245.314453125" y="237">LONGBLOB</text></g></g><g transform="translate(-94,-85) scale(1,1)"><g><path fill="none" stroke="none"/><text fill="#000000" stroke="none" font-family="Arial" font-size="13px" font-style="normal" font-weight="normal" text-decoration="none" x="109" y="234"></text></g></g><g transform="translate(-94,-85) scale(1,1)"><rect fill="#C0C0C0" stroke="none" x="457" y="140" width="211.5078125" height="105" opacity="0.2"/></g><g transform="translate(-94,-85) scale(1,1)"><rect fill="#ffffff" stroke="none" x="450" y="133" width="211.5078125" height="105"/></g><g transform="translate(-94,-85) scale(1,1)"><path fill="none" stroke="#000000" d="M 450 133 L 661.5078125 133 L 661.5078125 238 L 450 238 L 450 133 Z Z" stroke-miterlimit="10"/></g><g transform="translate(-94,-85) scale(1,1)"><path fill="none" stroke="#000000" d="M 450 156 L 661.5078125 156" stroke-miterlimit="10"/></g><g transform="translate(-94,-85) scale(1,1)"><path fill="none" stroke="#000000" d="M 478.05908203125 156 L 478.05908203125 238" stroke-miterlimit="10"/></g><g transform="translate(-94,-85) scale(1,1)"><path fill="none" stroke="#000000" d="M 558.12451171875 156 L 558.12451171875 238" stroke-miterlimit="10"/></g><g transform="translate(-94,-85) scale(1,1)"><g><path fill="none" stroke="none"/><text fill="#000000" stroke="none" font-family="Arial" font-size="13px" font-style="normal" font-weight="bold" text-decoration="none" x="530.10302734375" y="148.5">itinerary</text></g></g><g transform="translate(-94,-85) scale(1,1)"><g><path fill="none" stroke="none"/><text fill="#000000" stroke="none" font-family="Arial" font-size="13px" font-style="normal" font-weight="normal" text-decoration="none" x="455" y="170">PK</text></g></g><g transform="translate(-94,-85) scale(1,1)"><g><path fill="none" stroke="none"/><text fill="#000000" stroke="none" font-family="Arial" font-size="13px" font-style="normal" font-weight="normal" text-decoration="none" x="483.05908203125" y="170">id</text></g></g><g transform="translate(-94,-85) scale(1,1)"><g><path fill="none" stroke="none"/><text fill="#000000" stroke="none" font-family="Arial" font-size="13px" font-style="normal" font-weight="normal" text-decoration="none" x="563.12451171875" y="170">BIGINT(20)</text></g></g><g transform="translate(-94,-85) scale(1,1)"><g><path fill="none" stroke="none"/><text fill="#000000" stroke="none" font-family="Arial" font-size="13px" font-style="normal" font-weight="normal" text-decoration="none" x="455" y="167"></text></g></g><g transform="translate(-94,-85) scale(1,1)"><g><path fill="none" stroke="none"/><text fill="#000000" stroke="none" font-family="Arial" font-size="13px" font-style="normal" font-weight="normal" text-decoration="none" x="455" y="176"></text></g></g><g transform="translate(-94,-85) scale(1,1)"><g><path fill="none" stroke="none"/><text fill="#000000" stroke="none" font-family="Arial" font-size="13px" font-style="normal" font-weight="normal" text-decoration="none" x="483.05908203125" y="183">name</text></g></g><g transform="translate(-94,-85) scale(1,1)"><g><path fill="none" stroke="none"/><text fill="#000000" stroke="none" font-family="Arial" font-size="13px" font-style="normal" font-weight="normal" text-decoration="none" x="563.12451171875" y="185">VARCHAR(100)</text></g></g><g transform="translate(-94,-85) scale(1,1)"><g><path fill="none" stroke="none"/><text fill="#000000" stroke="none" font-family="Arial" font-size="13px" font-style="normal" font-weight="normal" text-decoration="none" x="455" y="182"></text></g></g><g transform="translate(-94,-85) scale(1,1)"><g><path fill="none" stroke="none"/><text fill="#000000" stroke="none" font-family="Arial" font-size="13px" font-style="normal" font-weight="normal" text-decoration="none" x="455" y="191"></text></g></g><g transform="translate(-94,-85) scale(1,1)"><g><path fill="none" stroke="none"/><text fill="#000000" stroke="none" font-family="Arial" font-size="13px" font-style="normal" font-weight="normal" text-decoration="none" x="483.05908203125" y="200">description</text></g></g><g transform="translate(-94,-85) scale(1,1)"><g><path fill="none" stroke="none"/><text fill="#000000" stroke="none" font-family="Arial" font-size="13px" font-style="normal" font-weight="normal" text-decoration="none" x="563.12451171875" y="200">VARCHAR(255)</text></g></g><g transform="translate(-94,-85) scale(1,1)"><g><path fill="none" stroke="none"/><text fill="#000000" stroke="none" font-family="Arial" font-size="13px" font-style="normal" font-weight="normal" text-decoration="none" x="455" y="197"></text></g></g><g transform="translate(-94,-85) scale(1,1)"><g><path fill="none" stroke="none"/><text fill="#000000" stroke="none" font-family="Arial" font-size="13px" font-style="normal" font-weight="normal" text-decoration="none" x="455" y="206"></text></g></g><g transform="translate(-94,-85) scale(1,1)"><g><path fill="none" stroke="none"/><text fill="#000000" stroke="none" font-family="Arial" font-size="13px" font-style="normal" font-weight="normal" text-decoration="none" x="483.05908203125" y="215">views</text></g></g><g transform="translate(-94,-85) scale(1,1)"><g><path fill="none" stroke="none"/><text fill="#000000" stroke="none" font-family="Arial" font-size="13px" font-style="normal" font-weight="normal" text-decoration="none" x="563.12451171875" y="215">BIGINT(20)</text></g></g><g transform="translate(-94,-85) scale(1,1)"><g><path fill="none" stroke="none"/><text fill="#000000" stroke="none" font-family="Arial" font-size="13px" font-style="normal" font-weight="normal" text-decoration="none" x="455" y="212"></text></g></g><g transform="translate(-94,-85) scale(1,1)"><g><path fill="none" stroke="none"/><text fill="#000000" stroke="none" font-family="Arial" font-size="13px" font-style="normal" font-weight="normal" text-decoration="none" x="455" y="221"></text></g></g><g transform="translate(-94,-85) scale(1,1)"><g><path fill="none" stroke="none"/><text fill="#000000" stroke="none" font-family="Arial" font-size="13px" font-style="normal" font-weight="normal" text-decoration="none" x="483.05908203125" y="229">score</text></g></g><g transform="translate(-94,-85) scale(1,1)"><g><path fill="none" stroke="none"/><text fill="#000000" stroke="none" font-family="Arial" font-size="13px" font-style="normal" font-weight="normal" text-decoration="none" x="563.12451171875" y="230">FLOAT(20)</text></g></g><g transform="translate(-94,-85) scale(1,1)"><g><path fill="none" stroke="none"/><text fill="#000000" stroke="none" font-family="Arial" font-size="13px" font-style="normal" font-weight="normal" text-decoration="none" x="455" y="227"></text></g></g><g transform="translate(-94,-85) scale(1,1)"><rect fill="#C0C0C0" stroke="none" x="1093" y="140" width="211.5078125" height="105" opacity="0.2"/></g><g transform="translate(-94,-85) scale(1,1)"><rect fill="#ffffff" stroke="none" x="1086" y="133" width="211.5078125" height="105"/></g><g transform="translate(-94,-85) scale(1,1)"><path fill="none" stroke="#000000" d="M 1086 133 L 1297.5078125 133 L 1297.5078125 238 L 1086 238 L 1086 133 Z Z" stroke-miterlimit="10"/></g><g transform="translate(-94,-85) scale(1,1)"><path fill="none" stroke="#000000" d="M 1086 156 L 1297.5078125 156" stroke-miterlimit="10"/></g><g transform="translate(-94,-85) scale(1,1)"><path fill="none" stroke="#000000" d="M 1114.05908203125 156 L 1114.05908203125 238" stroke-miterlimit="10"/></g><g transform="translate(-94,-85) scale(1,1)"><path fill="none" stroke="#000000" d="M 1194.12451171875 156 L 1194.12451171875 238" stroke-miterlimit="10"/></g><g transform="translate(-94,-85) scale(1,1)"><g><path fill="none" stroke="none"/><text fill="#000000" stroke="none" font-family="Arial" font-size="13px" font-style="normal" font-weight="bold" text-decoration="none" x="1157.086181640625" y="148.5">destination</text></g></g><g transform="translate(-94,-85) scale(1,1)"><g><path fill="none" stroke="none"/><text fill="#000000" stroke="none" font-family="Arial" font-size="13px" font-style="normal" font-weight="normal" text-decoration="none" x="1091" y="170">PK</text></g></g><g transform="translate(-94,-85) scale(1,1)"><g><path fill="none" stroke="none"/><text fill="#000000" stroke="none" font-family="Arial" font-size="13px" font-style="normal" font-weight="normal" text-decoration="none" x="1119.05908203125" y="170">id</text></g></g><g transform="translate(-94,-85) scale(1,1)"><g><path fill="none" stroke="none"/><text fill="#000000" stroke="none" font-family="Arial" font-size="13px" font-style="normal" font-weight="normal" text-decoration="none" x="1199.12451171875" y="170">BIGINT(20)</text></g></g><g transform="translate(-94,-85) scale(1,1)"><g><path fill="none" stroke="none"/><text fill="#000000" stroke="none" font-family="Arial" font-size="13px" font-style="normal" font-weight="normal" text-decoration="none" x="1091" y="167"></text></g></g><g transform="translate(-94,-85) scale(1,1)"><g><path fill="none" stroke="none"/><text fill="#000000" stroke="none" font-family="Arial" font-size="13px" font-style="normal" font-weight="normal" text-decoration="none" x="1091" y="176"></text></g></g><g transform="translate(-94,-85) scale(1,1)"><g><path fill="none" stroke="none"/><text fill="#000000" stroke="none" font-family="Arial" font-size="13px" font-style="normal" font-weight="normal" text-decoration="none" x="1119.05908203125" y="183">name</text></g></g><g transform="translate(-94,-85) scale(1,1)"><g><path fill="none" stroke="none"/><text fill="#000000" stroke="none" font-family="Arial" font-size="13px" font-style="normal" font-weight="normal" text-decoration="none" x="1199.12451171875" y="185">VARCHAR(100)</text></g></g><g transform="translate(-94,-85) scale(1,1)"><g><path fill="none" stroke="none"/><text fill="#000000" stroke="none" font-family="Arial" font-size="13px" font-style="normal" font-weight="normal" text-decoration="none" x="1091" y="182"></text></g></g><g transform="translate(-94,-85) scale(1,1)"><g><path fill="none" stroke="none"/><text fill="#000000" stroke="none" font-family="Arial" font-size="13px" font-style="normal" font-weight="normal" text-decoration="none" x="1091" y="191"></text></g></g><g transform="translate(-94,-85) scale(1,1)"><g><path fill="none" stroke="none"/><text fill="#000000" stroke="none" font-family="Arial" font-size="13px" font-style="normal" font-weight="normal" text-decoration="none" x="1119.05908203125" y="200">description</text></g></g><g transform="translate(-94,-85) scale(1,1)"><g><path fill="none" stroke="none"/><text fill="#000000" stroke="none" font-family="Arial" font-size="13px" font-style="normal" font-weight="normal" text-decoration="none" x="1199.12451171875" y="200">VARCHAR(255)</text></g></g><g transform="translate(-94,-85) scale(1,1)"><g><path fill="none" stroke="none"/><text fill="#000000" stroke="none" font-family="Arial" font-size="13px" font-style="normal" font-weight="normal" text-decoration="none" x="1091" y="197"></text></g></g><g transform="translate(-94,-85) scale(1,1)"><g><path fill="none" stroke="none"/><text fill="#000000" stroke="none" font-family="Arial" font-size="13px" font-style="normal" font-weight="normal" text-decoration="none" x="1091" y="206"></text></g></g><g transform="translate(-94,-85) scale(1,1)"><g><path fill="none" stroke="none"/><text fill="#000000" stroke="none" font-family="Arial" font-size="13px" font-style="normal" font-weight="normal" text-decoration="none" x="1119.05908203125" y="215">views</text></g></g><g transform="translate(-94,-85) scale(1,1)"><g><path fill="none" stroke="none"/><text fill="#000000" stroke="none" font-family="Arial" font-size="13px" font-style="normal" font-weight="normal" text-decoration="none" x="1199.12451171875" y="215">BIGINT(20)</text></g></g><g transform="translate(-94,-85) scale(1,1)"><g><path fill="none" stroke="none"/><text fill="#000000" stroke="none" font-family="Arial" font-size="13px" font-style="normal" font-weight="normal" text-decoration="none" x="1091" y="212"></text></g></g><g transform="translate(-94,-85) scale(1,1)"><g><path fill="none" stroke="none"/><text fill="#000000" stroke="none" font-family="Arial" font-size="13px" font-style="normal" font-weight="normal" text-decoration="none" x="1091" y="221"></text></g></g><g transform="translate(-94,-85) scale(1,1)"><g><path fill="none" stroke="none"/><text fill="#000000" stroke="none" font-family="Arial" font-size="13px" font-style="normal" font-weight="normal" text-decoration="none" x="1119.05908203125" y="230">image</text></g></g><g transform="translate(-94,-85) scale(1,1)"><g><path fill="none" stroke="none"/><text fill="#000000" stroke="none" font-family="Arial" font-size="13px" font-style="normal" font-weight="normal" text-decoration="none" x="1199.12451171875" y="230">LONGBLOB</text></g></g><g transform="translate(-94,-85) scale(1,1)"><g><path fill="none" stroke="none"/><text fill="#000000" stroke="none" font-family="Arial" font-size="13px" font-style="normal" font-weight="normal" text-decoration="none" x="1091" y="227"></text></g></g><g transform="translate(-94,-85) scale(1,1)"><rect fill="#C0C0C0" stroke="none" x="775" y="140" width="211.5078125" height="120" opacity="0.2"/></g><g transform="translate(-94,-85) scale(1,1)"><rect fill="#ffffff" stroke="none" x="768" y="133" width="211.5078125" height="120"/></g><g transform="translate(-94,-85) scale(1,1)"><path fill="none" stroke="#000000" d="M 768 133 L 979.5078125 133 L 979.5078125 253 L 768 253 L 768 133 Z Z" stroke-miterlimit="10"/></g><g transform="translate(-94,-85) scale(1,1)"><path fill="none" stroke="#000000" d="M 768 156 L 979.5078125 156" stroke-miterlimit="10"/></g><g transform="translate(-94,-85) scale(1,1)"><path fill="none" stroke="#000000" d="M 796.05908203125 156 L 796.05908203125 253" stroke-miterlimit="10"/></g><g transform="translate(-94,-85) scale(1,1)"><path fill="none" stroke="#000000" d="M 876.12451171875 156 L 876.12451171875 253" stroke-miterlimit="10"/></g><g transform="translate(-94,-85) scale(1,1)"><g><path fill="none" stroke="none"/><text fill="#000000" stroke="none" font-family="Arial" font-size="13px" font-style="normal" font-weight="bold" text-decoration="none" x="857.132568359375" y="148.5">place</text></g></g><g transform="translate(-94,-85) scale(1,1)"><g><path fill="none" stroke="none"/><text fill="#000000" stroke="none" font-family="Arial" font-size="13px" font-style="normal" font-weight="normal" text-decoration="none" x="773" y="170">PK</text></g></g><g transform="translate(-94,-85) scale(1,1)"><g><path fill="none" stroke="none"/><text fill="#000000" stroke="none" font-family="Arial" font-size="13px" font-style="normal" font-weight="normal" text-decoration="none" x="801.05908203125" y="170">id</text></g></g><g transform="translate(-94,-85) scale(1,1)"><g><path fill="none" stroke="none"/><text fill="#000000" stroke="none" font-family="Arial" font-size="13px" font-style="normal" font-weight="normal" text-decoration="none" x="881.12451171875" y="170">BIGINT(20)</text></g></g><g transform="translate(-94,-85) scale(1,1)"><g><path fill="none" stroke="none"/><text fill="#000000" stroke="none" font-family="Arial" font-size="13px" font-style="normal" font-weight="normal" text-decoration="none" x="773" y="167"></text></g></g><g transform="translate(-94,-85) scale(1,1)"><g><path fill="none" stroke="none"/><text fill="#000000" stroke="none" font-family="Arial" font-size="13px" font-style="normal" font-weight="normal" text-decoration="none" x="773" y="185">FK</text></g></g><g transform="translate(-94,-85) scale(1,1)"><g><path fill="none" stroke="none"/><text fill="#000000" stroke="none" font-family="Arial" font-size="13px" font-style="normal" font-weight="normal" text-decoration="none" x="801.05908203125" y="185">destination</text></g></g><g transform="translate(-94,-85) scale(1,1)"><g><path fill="none" stroke="none"/><text fill="#000000" stroke="none" font-family="Arial" font-size="13px" font-style="normal" font-weight="normal" text-decoration="none" x="881.12451171875" y="185">BIGINT(20)</text></g></g><g transform="translate(-94,-85) scale(1,1)"><g><path fill="none" stroke="none"/><text fill="#000000" stroke="none" font-family="Arial" font-size="13px" font-style="normal" font-weight="normal" text-decoration="none" x="773" y="182"></text></g></g><g transform="translate(-94,-85) scale(1,1)"><g><path fill="none" stroke="none"/><text fill="#000000" stroke="none" font-family="Arial" font-size="13px" font-style="normal" font-weight="normal" text-decoration="none" x="773" y="191"></text></g></g><g transform="translate(-94,-85) scale(1,1)"><g><path fill="none" stroke="none"/><text fill="#000000" stroke="none" font-family="Arial" font-size="13px" font-style="normal" font-weight="normal" text-decoration="none" x="801.05908203125" y="198">name</text></g></g><g transform="translate(-94,-85) scale(1,1)"><g><path fill="none" stroke="none"/><text fill="#000000" stroke="none" font-family="Arial" font-size="13px" font-style="normal" font-weight="normal" text-decoration="none" x="881.12451171875" y="200">VARCHAR(100)</text></g></g><g transform="translate(-94,-85) scale(1,1)"><g><path fill="none" stroke="none"/><text fill="#000000" stroke="none" font-family="Arial" font-size="13px" font-style="normal" font-weight="normal" text-decoration="none" x="773" y="197"></text></g></g><g transform="translate(-94,-85) scale(1,1)"><g><path fill="none" stroke="none"/><text fill="#000000" stroke="none" font-family="Arial" font-size="13px" font-style="normal" font-weight="normal" text-decoration="none" x="773" y="206"></text></g></g><g transform="translate(-94,-85) scale(1,1)"><g><path fill="none" stroke="none"/><text fill="#000000" stroke="none" font-family="Arial" font-size="13px" font-style="normal" font-weight="normal" text-decoration="none" x="801.05908203125" y="215">description</text></g></g><g transform="translate(-94,-85) scale(1,1)"><g><path fill="none" stroke="none"/><text fill="#000000" stroke="none" font-family="Arial" font-size="13px" font-style="normal" font-weight="normal" text-decoration="none" x="881.12451171875" y="215">VARCHAR(255)</text></g></g><g transform="translate(-94,-85) scale(1,1)"><g><path fill="none" stroke="none"/><text fill="#000000" stroke="none" font-family="Arial" font-size="13px" font-style="normal" font-weight="normal" text-decoration="none" x="773" y="212"></text></g></g><g transform="translate(-94,-85) scale(1,1)"><g><path fill="none" stroke="none"/><text fill="#000000" stroke="none" font-family="Arial" font-size="13px" font-style="normal" font-weight="normal" text-decoration="none" x="773" y="221"></text></g></g><g transform="translate(-94,-85) scale(1,1)"><g><path fill="none" stroke="none"/><text fill="#000000" stroke="none" font-family="Arial" font-size="13px" font-style="normal" font-weight="normal" text-decoration="none" x="801.05908203125" y="230">views</text></g></g><g transform="translate(-94,-85) scale(1,1)"><g><path fill="none" stroke="none"/><text fill="#000000" stroke="none" font-family="Arial" font-size="13px" font-style="normal" font-weight="normal" text-decoration="none" x="881.12451171875" y="230">BIGINT(20)</text></g></g><g transform="translate(-94,-85) scale(1,1)"><g><path fill="none" stroke="none"/><text fill="#000000" stroke="none" font-family="Arial" font-size="13px" font-style="normal" font-weight="normal" text-decoration="none" x="773" y="227"></text></g></g><g transform="translate(-94,-85) scale(1,1)"><g><path fill="none" stroke="none"/><text fill="#000000" stroke="none" font-family="Arial" font-size="13px" font-style="normal" font-weight="normal" text-decoration="none" x="773" y="236"></text></g></g><g transform="translate(-94,-85) scale(1,1)"><g><path fill="none" stroke="none"/><text fill="#000000" stroke="none" font-family="Arial" font-size="13px" font-style="normal" font-weight="normal" text-decoration="none" x="801.05908203125" y="245">image</text></g></g><g transform="translate(-94,-85) scale(1,1)"><g><path fill="none" stroke="none"/><text fill="#000000" stroke="none" font-family="Arial" font-size="13px" font-style="normal" font-weight="normal" text-decoration="none" x="881.12451171875" y="245">LONGBLOB</text></g></g><g transform="translate(-94,-85) scale(1,1)"><g><path fill="none" stroke="none"/><text fill="#000000" stroke="none" font-family="Arial" font-size="13px" font-style="normal" font-weight="normal" text-decoration="none" x="773" y="242"></text></g></g><g transform="translate(-94,-85) scale(1,1)"><rect fill="#C0C0C0" stroke="none" x="295" y="295" width="199.2314453125" height="120" opacity="0.2"/></g><g transform="translate(-94,-85) scale(1,1)"><rect fill="#ffffff" stroke="none" x="288" y="288" width="199.2314453125" height="120"/></g><g transform="translate(-94,-85) scale(1,1)"><path fill="none" stroke="#000000" d="M 288 288 L 487.2314453125 288 L 487.2314453125 408 L 288 408 L 288 288 Z Z" stroke-miterlimit="10"/></g><g transform="translate(-94,-85) scale(1,1)"><path fill="none" stroke="#000000" d="M 288 311 L 487.2314453125 311" stroke-miterlimit="10"/></g><g transform="translate(-94,-85) scale(1,1)"><path fill="none" stroke="#000000" d="M 316.05908203125 311 L 316.05908203125 408" stroke-miterlimit="10"/></g><g transform="translate(-94,-85) scale(1,1)"><path fill="none" stroke="#000000" d="M 383.84814453125 311 L 383.84814453125 408" stroke-miterlimit="10"/></g><g transform="translate(-94,-85) scale(1,1)"><g><path fill="none" stroke="none"/><text fill="#000000" stroke="none" font-family="Arial" font-size="13px" font-style="normal" font-weight="bold" text-decoration="none" x="367.37939453125" y="303.5">review</text></g></g><g transform="translate(-94,-85) scale(1,1)"><g><path fill="none" stroke="none"/><text fill="#000000" stroke="none" font-family="Arial" font-size="13px" font-style="normal" font-weight="normal" text-decoration="none" x="293" y="325">PK</text></g></g><g transform="translate(-94,-85) scale(1,1)"><g><path fill="none" stroke="none"/><text fill="#000000" stroke="none" font-family="Arial" font-size="13px" font-style="normal" font-weight="normal" text-decoration="none" x="321.05908203125" y="325">id</text></g></g><g transform="translate(-94,-85) scale(1,1)"><g><path fill="none" stroke="none"/><text fill="#000000" stroke="none" font-family="Arial" font-size="13px" font-style="normal" font-weight="normal" text-decoration="none" x="388.84814453125" y="325">BIGINT(20)</text></g></g><g transform="translate(-94,-85) scale(1,1)"><g><path fill="none" stroke="none"/><text fill="#000000" stroke="none" font-family="Arial" font-size="13px" font-style="normal" font-weight="normal" text-decoration="none" x="293" y="322"></text></g></g><g transform="translate(-94,-85) scale(1,1)"><g><path fill="none" stroke="none"/><text fill="#000000" stroke="none" font-family="Arial" font-size="13px" font-style="normal" font-weight="normal" text-decoration="none" x="293" y="340">FK</text></g></g><g transform="translate(-94,-85) scale(1,1)"><g><path fill="none" stroke="none"/><text fill="#000000" stroke="none" font-family="Arial" font-size="13px" font-style="normal" font-weight="normal" text-decoration="none" x="321.05908203125" y="339">user</text></g></g><g transform="translate(-94,-85) scale(1,1)"><g><path fill="none" stroke="none"/><text fill="#000000" stroke="none" font-family="Arial" font-size="13px" font-style="normal" font-weight="normal" text-decoration="none" x="388.84814453125" y="340">BIGINT(20)</text></g></g><g transform="translate(-94,-85) scale(1,1)"><g><path fill="none" stroke="none"/><text fill="#000000" stroke="none" font-family="Arial" font-size="13px" font-style="normal" font-weight="normal" text-decoration="none" x="293" y="337"></text></g></g><g transform="translate(-94,-85) scale(1,1)"><g><path fill="none" stroke="none"/><text fill="#000000" stroke="none" font-family="Arial" font-size="13px" font-style="normal" font-weight="normal" text-decoration="none" x="293" y="355">FK</text></g></g><g transform="translate(-94,-85) scale(1,1)"><g><path fill="none" stroke="none"/><text fill="#000000" stroke="none" font-family="Arial" font-size="13px" font-style="normal" font-weight="normal" text-decoration="none" x="321.05908203125" y="355">itinerary</text></g></g><g transform="translate(-94,-85) scale(1,1)"><g><path fill="none" stroke="none"/><text fill="#000000" stroke="none" font-family="Arial" font-size="13px" font-style="normal" font-weight="normal" text-decoration="none" x="388.84814453125" y="355">BIGINT(20)</text></g></g><g transform="translate(-94,-85) scale(1,1)"><g><path fill="none" stroke="none"/><text fill="#000000" stroke="none" font-family="Arial" font-size="13px" font-style="normal" font-weight="normal" text-decoration="none" x="293" y="352"></text></g></g><g transform="translate(-94,-85) scale(1,1)"><g><path fill="none" stroke="none"/><text fill="#000000" stroke="none" font-family="Arial" font-size="13px" font-style="normal" font-weight="normal" text-decoration="none" x="293" y="361"></text></g></g><g transform="translate(-94,-85) scale(1,1)"><g><path fill="none" stroke="none"/><text fill="#000000" stroke="none" font-family="Arial" font-size="13px" font-style="normal" font-weight="normal" text-decoration="none" x="321.05908203125" y="370">title</text></g></g><g transform="translate(-94,-85) scale(1,1)"><g><path fill="none" stroke="none"/><text fill="#000000" stroke="none" font-family="Arial" font-size="13px" font-style="normal" font-weight="normal" text-decoration="none" x="388.84814453125" y="370">VARCHAR(100)</text></g></g><g transform="translate(-94,-85) scale(1,1)"><g><path fill="none" stroke="none"/><text fill="#000000" stroke="none" font-family="Arial" font-size="13px" font-style="normal" font-weight="normal" text-decoration="none" x="293" y="367"></text></g></g><g transform="translate(-94,-85) scale(1,1)"><g><path fill="none" stroke="none"/><text fill="#000000" stroke="none" font-family="Arial" font-size="13px" font-style="normal" font-weight="normal" text-decoration="none" x="293" y="376"></text></g></g><g transform="translate(-94,-85) scale(1,1)"><g><path fill="none" stroke="none"/><text fill="#000000" stroke="none" font-family="Arial" font-size="13px" font-style="normal" font-weight="normal" text-decoration="none" x="321.05908203125" y="385">comment</text></g></g><g transform="translate(-94,-85) scale(1,1)"><g><path fill="none" stroke="none"/><text fill="#000000" stroke="none" font-family="Arial" font-size="13px" font-style="normal" font-weight="normal" text-decoration="none" x="388.84814453125" y="385">VARCHAR(255)</text></g></g><g transform="translate(-94,-85) scale(1,1)"><g><path fill="none" stroke="none"/><text fill="#000000" stroke="none" font-family="Arial" font-size="13px" font-style="normal" font-weight="normal" text-decoration="none" x="293" y="382"></text></g></g><g transform="translate(-94,-85) scale(1,1)"><g><path fill="none" stroke="none"/><text fill="#000000" stroke="none" font-family="Arial" font-size="13px" font-style="normal" font-weight="normal" text-decoration="none" x="293" y="391"></text></g></g><g transform="translate(-94,-85) scale(1,1)"><g><path fill="none" stroke="none"/><text fill="#000000" stroke="none" font-family="Arial" font-size="13px" font-style="normal" font-weight="normal" text-decoration="none" x="321.05908203125" y="400">points</text></g></g><g transform="translate(-94,-85) scale(1,1)"><g><path fill="none" stroke="none"/><text fill="#000000" stroke="none" font-family="Arial" font-size="13px" font-style="normal" font-weight="normal" text-decoration="none" x="388.84814453125" y="400">INT(11)</text></g></g><g transform="translate(-94,-85) scale(1,1)"><g><path fill="none" stroke="none"/><text fill="#000000" stroke="none" font-family="Arial" font-size="13px" font-style="normal" font-weight="normal" text-decoration="none" x="293" y="397"></text></g></g><g transform="translate(-94,-85) scale(1,1)"><path fill="none" stroke="#000000" d="M 662 176 L 768 176" stroke-miterlimit="10"/></g><g transform="translate(-94,-85) scale(1,1)"><path fill="none" stroke="#000000" d="M 754 176 L 768 183" stroke-miterlimit="10"/></g><g transform="translate(-94,-85) scale(1,1)"><path fill="none" stroke="#000000" d="M 754 176 L 768 169" stroke-miterlimit="10"/></g><g transform="translate(-94,-85) scale(1,1)"><path fill="#FFFFFF" stroke="none" d="M 739 176 C 739 172.1340064 742.1340064 169 746 169 C 749.8659936 169 753 172.1340064 753 176 C 753 179.8659936 749.8659936 183 746 183 C 742.1340064 183 739 179.8659936 739 176 Z"/></g><g transform="translate(-94,-85) scale(1,1)"><path fill="none" stroke="#000000" d="M 739 176 C 739 172.1340064 742.1340064 169 746 169 C 749.8659936 169 753 172.1340064 753 176 C 753 179.8659936 749.8659936 183 746 183 C 742.1340064 183 739 179.8659936 739 176 Z" stroke-miterlimit="10"/></g><g transform="translate(-94,-85) scale(1,1)"><path fill="none" stroke="#000000" d="M 676 176 L 662 169" stroke-miterlimit="10"/></g><g transform="translate(-94,-85) scale(1,1)"><path fill="none" stroke="#000000" d="M 676 176 L 662 183" stroke-miterlimit="10"/></g><g transform="translate(-94,-85) scale(1,1)"><path fill="#FFFFFF" stroke="none" d="M 677 176 C 677 172.1340064 680.1340064 169 684 169 C 687.8659936 169 691 172.1340064 691 176 C 691 179.8659936 687.8659936 183 684 183 C 680.1340064 183 677 179.8659936 677 176 Z"/></g><g transform="translate(-94,-85) scale(1,1)"><path fill="none" stroke="#000000" d="M 677 176 C 677 172.1340064 680.1340064 169 684 169 C 687.8659936 169 691 172.1340064 691 176 C 691 179.8659936 687.8659936 183 684 183 C 680.1340064 183 677 179.8659936 677 176 Z" stroke-miterlimit="10"/></g><g transform="translate(-94,-85) scale(1,1)"><g><path fill="none" stroke="none"/><text fill="#000000" stroke="none" font-family="Arial" font-size="13px" font-style="normal" font-weight="normal" text-decoration="none" x="686.5" y="161"></text></g></g><g transform="translate(-94,-85) scale(1,1)"><g><path fill="none" stroke="none"/><text fill="#000000" stroke="none" font-family="Arial" font-size="13px" font-style="normal" font-weight="normal" text-decoration="none" x="741.5" y="161"></text></g></g><g transform="translate(-94,-85) scale(1,1)"><path fill="none" stroke="#000000" d="M 1086 176 L 980 176" stroke-miterlimit="10"/></g><g transform="translate(-94,-85) scale(1,1)"><path fill="none" stroke="#000000" d="M 994 176 L 980 169" stroke-miterlimit="10"/></g><g transform="translate(-94,-85) scale(1,1)"><path fill="none" stroke="#000000" d="M 994 176 L 980 183" stroke-miterlimit="10"/></g><g transform="translate(-94,-85) scale(1,1)"><path fill="#FFFFFF" stroke="none" d="M 995 176 C 995 172.1340064 998.1340064 169 1002 169 C 1005.8659936 169 1009 172.1340064 1009 176 C 1009 179.8659936 1005.8659936 183 1002 183 C 998.1340064 183 995 179.8659936 995 176 Z"/></g><g transform="translate(-94,-85) scale(1,1)"><path fill="none" stroke="#000000" d="M 995 176 C 995 172.1340064 998.1340064 169 1002 169 C 1005.8659936 169 1009 172.1340064 1009 176 C 1009 179.8659936 1005.8659936 183 1002 183 C 998.1340064 183 995 179.8659936 995 176 Z" stroke-miterlimit="10"/></g><g transform="translate(-94,-85) scale(1,1)"><path fill="none" stroke="#000000" d="M 1079 183 L 1079 169" stroke-miterlimit="10"/></g><g transform="translate(-94,-85) scale(1,1)"><path fill="none" stroke="#000000" d="M 1072 183 L 1072 169" stroke-miterlimit="10"/></g><g transform="translate(-94,-85) scale(1,1)"><g><path fill="none" stroke="none"/><text fill="#000000" stroke="none" font-family="Arial" font-size="13px" font-style="normal" font-weight="normal" text-decoration="none" x="1059.5" y="190"></text></g></g><g transform="translate(-94,-85) scale(1,1)"><g><path fill="none" stroke="none"/><text fill="#000000" stroke="none" font-family="Arial" font-size="13px" font-style="normal" font-weight="normal" text-decoration="none" x="1004.5" y="190"></text></g></g><g transform="translate(-94,-85) scale(1,1)"><path fill="none" stroke="#000000" d="M 220 245 L 220 336 M 220 336 A 8 8 0 0 0 228 344 L 288 344" stroke-miterlimit="10"/></g><g transform="translate(-94,-85) scale(1,1)"><path fill="none" stroke="#000000" d="M 274 344 L 288 351" stroke-miterlimit="10"/></g><g transform="translate(-94,-85) scale(1,1)"><path fill="none" stroke="#000000" d="M 274 344 L 288 337" stroke-miterlimit="10"/></g><g transform="translate(-94,-85) scale(1,1)"><path fill="#FFFFFF" stroke="none" d="M 259 344 C 259 340.1340064 262.1340064 337 266 337 C 269.8659936 337 273 340.1340064 273 344 C 273 347.8659936 269.8659936 351 266 351 C 262.1340064 351 259 347.8659936 259 344 Z"/></g><g transform="translate(-94,-85) scale(1,1)"><path fill="none" stroke="#000000" d="M 259 344 C 259 340.1340064 262.1340064 337 266 337 C 269.8659936 337 273 340.1340064 273 344 C 273 347.8659936 269.8659936 351 266 351 C 262.1340064 351 259 347.8659936 259 344 Z" stroke-miterlimit="10"/></g><g transform="translate(-94,-85) scale(1,1)"><path fill="none" stroke="#000000" d="M 227 252 L 213 252" stroke-miterlimit="10"/></g><g transform="translate(-94,-85) scale(1,1)"><path fill="none" stroke="#000000" d="M 227 259 L 213 259" stroke-miterlimit="10"/></g><g transform="translate(-94,-85) scale(1,1)"><g><path fill="none" stroke="none"/><text fill="#000000" stroke="none" font-family="Arial" font-size="13px" font-style="normal" font-weight="normal" text-decoration="none" x="234.5" y="270"></text></g></g><g transform="translate(-94,-85) scale(1,1)"><g><path fill="none" stroke="none"/><text fill="#000000" stroke="none" font-family="Arial" font-size="13px" font-style="normal" font-weight="normal" text-decoration="none" x="261.5" y="329"></text></g></g><g transform="translate(-94,-85) scale(1,1)"><path fill="none" stroke="#000000" d="M 552 238 L 552 336 M 552 336 A 8 8 0 0 1 544 344 L 487 344" stroke-miterlimit="10"/></g><g transform="translate(-94,-85) scale(1,1)"><path fill="none" stroke="#000000" d="M 501 344 L 487 337" stroke-miterlimit="10"/></g><g transform="translate(-94,-85) scale(1,1)"><path fill="none" stroke="#000000" d="M 501 344 L 487 351" stroke-miterlimit="10"/></g><g transform="translate(-94,-85) scale(1,1)"><path fill="#FFFFFF" stroke="none" d="M 502 344 C 502 340.1340064 505.1340064 337 509 337 C 512.8659936 337 516 340.1340064 516 344 C 516 347.8659936 512.8659936 351 509 351 C 505.1340064 351 502 347.8659936 502 344 Z"/></g><g transform="translate(-94,-85) scale(1,1)"><path fill="none" stroke="#000000" d="M 502 344 C 502 340.1340064 505.1340064 337 509 337 C 512.8659936 337 516 340.1340064 516 344 C 516 347.8659936 512.8659936 351 509 351 C 505.1340064 351 502 347.8659936 502 344 Z" stroke-miterlimit="10"/></g><g transform="translate(-94,-85) scale(1,1)"><path fill="none" stroke="#000000" d="M 559 245 L 545 245" stroke-miterlimit="10"/></g><g transform="translate(-94,-85) scale(1,1)"><path fill="none" stroke="#000000" d="M 559 252 L 545 252" stroke-miterlimit="10"/></g><g transform="translate(-94,-85) scale(1,1)"><g><path fill="none" stroke="none"/><text fill="#000000" stroke="none" font-family="Arial" font-size="13px" font-style="normal" font-weight="normal" text-decoration="none" x="566.5" y="263"></text></g></g><g transform="translate(-94,-85) scale(1,1)"><g><path fill="none" stroke="none"/><text fill="#000000" stroke="none" font-family="Arial" font-size="13px" font-style="normal" font-weight="normal" text-decoration="none" x="511.5" y="358"></text></g></g><g transform="translate(-94,-85) scale(1,1)"><path fill="none" stroke="#000000" d="M 344 176 L 450 176" stroke-miterlimit="10"/></g><g transform="translate(-94,-85) scale(1,1)"><path fill="none" stroke="#000000" d="M 436 176 L 450 183" stroke-miterlimit="10"/></g><g transform="translate(-94,-85) scale(1,1)"><path fill="none" stroke="#000000" d="M 436 176 L 450 169" stroke-miterlimit="10"/></g><g transform="translate(-94,-85) scale(1,1)"><path fill="#FFFFFF" stroke="none" d="M 421 176 C 421 172.1340064 424.1340064 169 428 169 C 431.8659936 169 435 172.1340064 435 176 C 435 179.8659936 431.8659936 183 428 183 C 424.1340064 183 421 179.8659936 421 176 Z"/></g><g transform="translate(-94,-85) scale(1,1)"><path fill="none" stroke="#000000" d="M 421 176 C 421 172.1340064 424.1340064 169 428 169 C 431.8659936 169 435 172.1340064 435 176 C 435 179.8659936 431.8659936 183 428 183 C 424.1340064 183 421 179.8659936 421 176 Z" stroke-miterlimit="10"/></g><g transform="translate(-94,-85) scale(1,1)"><path fill="none" stroke="#000000" d="M 351 169 L 351 183" stroke-miterlimit="10"/></g><g transform="translate(-94,-85) scale(1,1)"><path fill="none" stroke="#000000" d="M 358 169 L 358 183" stroke-miterlimit="10"/></g><g transform="translate(-94,-85) scale(1,1)"><g><path fill="none" stroke="none"/><text fill="#000000" stroke="none" font-family="Arial" font-size="13px" font-style="normal" font-weight="normal" text-decoration="none" x="368.5" y="161"></text></g></g><g transform="translate(-94,-85) scale(1,1)"><g><path fill="none" stroke="none"/><text fill="#000000" stroke="none" font-family="Arial" font-size="13px" font-style="normal" font-weight="normal" text-decoration="none" x="423.5" y="161"></text></g></g></g></svg>